<svg width="21" height="20" viewBox="0 0 21 20" fill="none" xmlns="http://www.w3.org/2000/svg">
<path d="M6 7V6.25C6 5.05653 6.47411 3.91193 7.31802 3.06802C8.16193 2.22411 9.30653 1.75 10.5 1.75C11.6935 1.75 12.8381 2.22411 13.682 3.06802C14.5259 3.91193 15 5.05653 15 6.25V7H16.5C16.6989 7 16.8897 7.07902 17.0303 7.21967C17.171 7.36032 17.25 7.55109 17.25 7.75V16.75C17.25 16.9489 17.171 17.1397 17.0303 17.2803C16.8897 17.421 16.6989 17.5 16.5 17.5H4.5C4.30109 17.5 4.11032 17.421 3.96967 17.2803C3.82902 17.1397 3.75 16.9489 3.75 16.75V7.75C3.75 7.55109 3.82902 7.36032 3.96967 7.21967C4.11032 7.07902 4.30109 7 4.5 7H6ZM15.75 8.5H5.25V16H15.75V8.5ZM9.75 12.799C9.46404 12.6339 9.24054 12.3791 9.11418 12.074C8.98782 11.7689 8.96565 11.4307 9.05111 11.1117C9.13657 10.7928 9.32489 10.5109 9.58686 10.3099C9.84882 10.1089 10.1698 9.99996 10.5 9.99996C10.8302 9.99996 11.1512 10.1089 11.4131 10.3099C11.6751 10.5109 11.8634 10.7928 11.9489 11.1117C12.0344 11.4307 12.0122 11.7689 11.8858 12.074C11.7595 12.3791 11.536 12.6339 11.25 12.799V14.5H9.75V12.799ZM7.5 7H13.5V6.25C13.5 5.45435 13.1839 4.69129 12.6213 4.12868C12.0587 3.56607 11.2956 3.25 10.5 3.25C9.70435 3.25 8.94129 3.56607 8.37868 4.12868C7.81607 4.69129 7.5 5.45435 7.5 6.25V7Z" fill="#0A0D14"/>
</svg>
