<svg width="619" height="421" viewBox="0 0 619 421" fill="none" xmlns="http://www.w3.org/2000/svg">
<g clip-path="url(#clip0_265_4752)">
<path d="M215.688 392.674C310.045 392.674 386.537 384.492 386.537 374.398C386.537 364.304 310.045 356.121 215.688 356.121C121.331 356.121 44.8389 364.304 44.8389 374.398C44.8389 384.492 121.331 392.674 215.688 392.674Z" fill="#C6C6C6" fill-opacity="0.32"/>
<path d="M342.417 130.574C349.552 132.255 356.866 132.621 364.096 131.657L369.733 63.1233C365.231 61.013 360.044 62.7818 356.832 67.0463C353.82 71.0476 353.013 76.6982 352.864 82.0377C352.715 87.3773 353.09 92.8166 351.928 97.9847C350.803 102.931 348.343 107.314 344.917 110.477C345.008 110.302 340.427 110.496 340.519 110.321C339.715 113.185 341.946 114.865 341.141 117.73C340.615 119.601 341.212 122.059 341.166 124.03C341.119 126.001 341.161 129.266 342.417 130.574Z" fill="#E3E9FF"/>
<path d="M368.98 134.134L374.83 65.3958L368.042 64.5981L362.193 133.336L368.98 134.134Z" fill="url(#paint0_linear_265_4752)"/>
<path d="M355.634 126.52C358.28 125.86 359.969 122.804 359.407 119.695C358.845 116.585 356.245 114.6 353.599 115.26C350.953 115.921 349.264 118.977 349.826 122.086C350.387 125.195 352.988 127.181 355.634 126.52Z" fill="url(#paint1_linear_265_4752)"/>
<path d="M356.396 102.061C356.212 102.061 356.031 102.01 355.868 101.912L348.713 97.6379C348.44 97.4714 348.233 97.1847 348.139 96.8403C348.045 96.4958 348.07 96.1216 348.21 95.799C348.349 95.4764 348.591 95.2317 348.884 95.1181C349.176 95.0046 349.495 95.0314 349.77 95.1927L356.925 99.4665C357.159 99.6061 357.346 99.8343 357.456 100.114C357.566 100.394 357.592 100.709 357.531 101.009C357.47 101.309 357.325 101.575 357.119 101.766C356.913 101.957 356.658 102.061 356.396 102.061Z" fill="url(#paint2_linear_265_4752)"/>
<path d="M357.142 95.5488C356.977 95.5484 356.813 95.5068 356.663 95.4266L350.076 91.9302C349.793 91.7804 349.574 91.5051 349.464 91.1648C349.355 90.8245 349.365 90.4471 349.493 90.1156C349.62 89.7841 349.854 89.5257 350.144 89.3972C350.434 89.2688 350.755 89.2807 351.037 89.4305L357.624 92.9269C357.866 93.0568 358.064 93.2802 358.183 93.5602C358.303 93.8401 358.338 94.1596 358.281 94.4658C358.225 94.772 358.081 95.0463 357.874 95.2433C357.667 95.4403 357.409 95.5481 357.142 95.5488V95.5488Z" fill="url(#paint3_linear_265_4752)"/>
<path d="M357.061 87.4447C356.919 87.4446 356.779 87.4139 356.647 87.3543L350.579 84.6539C350.436 84.5901 350.304 84.4937 350.193 84.3702C350.081 84.2467 349.991 84.0987 349.929 83.9344C349.866 83.7702 349.831 83.593 349.826 83.4129C349.822 83.2329 349.847 83.0536 349.902 82.8852C349.956 82.7168 350.038 82.5626 350.143 82.4314C350.248 82.3003 350.374 82.1947 350.514 82.1208C350.654 82.0469 350.804 82.0061 350.958 82.0006C351.111 81.9952 351.263 82.0253 351.407 82.0891L357.476 84.7868C357.732 84.9 357.947 85.1155 358.082 85.3955C358.216 85.6756 358.263 86.0024 358.214 86.319C358.165 86.6356 358.022 86.9217 357.812 87.1275C357.601 87.3332 357.336 87.4455 357.062 87.4447H357.061Z" fill="url(#paint4_linear_265_4752)"/>
<path d="M151.879 348.936C152.617 357.443 152.223 366.033 150.71 374.398H92.1191C90.7621 368.929 92.7614 363.031 96.6832 359.685C100.362 356.546 105.226 356.148 109.762 356.486C114.299 356.825 118.871 357.785 123.357 356.925C127.657 356.087 131.609 353.63 134.618 349.926C134.461 350.016 134.13 349.484 133.973 349.575L141.484 347.581C143.12 347.147 144.784 346.71 146.459 346.845C148.134 346.981 150.892 347.341 151.879 348.936Z" fill="#E3E9FF"/>
<path d="M150.613 374.398H92.1191V382.374H150.613V374.398Z" fill="url(#paint5_linear_265_4752)"/>
<path d="M122.362 73.2231C123.373 70.0271 123.578 66.4457 122.764 63.1779C121.95 59.9101 120.085 56.9692 117.554 55.3C116.098 54.3594 114.472 53.8376 112.812 53.7776C111.151 53.7175 109.501 54.1209 107.998 54.9545C106.175 53.6495 103.438 54.0615 101.626 55.3904C99.8145 56.7193 98.6158 59.0197 98.1115 61.4569C97.7282 63.3797 97.7354 65.3815 98.1324 67.3004C98.5294 69.2193 99.3052 71.0015 100.397 72.5028C98.6588 72.3195 96.9071 73.6723 95.5897 75.0185C94.2723 76.3647 93.3755 78.2079 92.8531 80.172C91.5673 84.988 92.6156 90.5641 95.506 94.297C92.3329 98.7449 92.0083 106.341 94.0642 111.629C96.1201 116.916 100.889 120.576 105.831 120.665C108.47 123.111 111.623 124.386 114.959 123.917C117.86 123.505 120.814 121.646 121.897 118.457C122.626 116.313 122.984 113.255 122.185 111.148C121.385 109.04 120.116 107.218 119.265 105.138C117.852 101.691 117.663 97.6964 118.144 93.9077C118.626 90.1189 119.74 86.495 120.849 82.8976C121.648 80.3022 121.545 75.8025 122.362 73.2231Z" fill="url(#paint6_linear_265_4752)"/>
<path d="M104.52 247.444C103.225 261.097 104.209 275.372 107.321 288.108C107.831 290.195 108.41 292.276 109.302 293.932C110.194 295.588 111.451 296.785 112.757 296.68C114.453 296.547 115.906 294.179 116.417 291.386C116.929 288.592 116.613 285.501 115.898 282.845C115.184 280.188 114.097 277.893 113.005 275.655C114.599 275.522 115.576 279.003 117.171 278.891C118.075 278.827 118.824 277.452 118.999 275.922C119.174 274.393 118.863 272.791 118.351 271.508C117.839 270.224 117.141 269.203 116.451 268.199L114.22 264.948C116.399 261.839 117.387 256.055 116.423 251.461C114.364 249.102 112.013 245.862 109.575 245.174C107.851 244.686 106.103 246.16 104.52 247.444Z" fill="#FFD6BB"/>
<path d="M228.982 76.1667C233.112 75.1594 237.246 74.0019 241.099 71.9846C244.952 69.9673 248.538 67.0304 250.993 62.9998C253.509 58.8709 254.798 53.6881 257.944 50.2117C258.948 49.102 260.511 48.1891 261.637 49.1206C262.646 49.9539 262.618 51.6921 262.471 53.1313C262.009 57.678 261.436 62.206 260.752 66.7155C260.242 70.0723 259.621 73.5567 257.821 76.2345C256.193 78.6597 253.779 80.1534 251.402 81.4731C243.982 85.5907 236.191 88.7113 228.176 90.7755C228.521 85.6618 228.641 81.2764 228.982 76.1667Z" fill="#FFD6BB"/>
<path d="M254.438 64.9907C254.723 64.277 255.018 63.5475 255.498 62.9973C255.977 62.4471 256.688 62.1029 257.329 62.3328C257.999 62.576 258.429 63.396 258.512 64.2146C258.594 65.0332 258.393 65.8545 258.152 66.6292C257.245 69.5411 255.771 72.1633 253.848 74.2864C253.363 74.818 252.83 75.3309 252.208 75.5888C249.252 76.802 251.179 73.1462 251.737 71.7535C252.637 69.497 253.537 67.2427 254.438 64.9907Z" fill="#E0B9A4"/>
<path d="M131.547 249.556C133.655 227.678 144.703 208.008 158.813 193.523C172.922 179.038 189.969 169.138 207.117 160.267C249.954 138.114 294.671 121.372 340.518 110.323C343.099 116.741 344.298 124.075 343.701 131.14C294.42 159.157 245.231 188.513 195.95 216.531C177.423 227.064 168.609 255.665 162.291 278.684C155.973 301.703 153.603 325.971 152.617 350.129C146.606 350.634 139.375 351.126 133.364 351.629C128.747 318.423 128.325 282.988 131.547 249.556Z" fill="url(#paint7_linear_265_4752)"/>
<path d="M142.528 368.031C145.233 368.031 147.426 365.454 147.426 362.275C147.426 359.097 145.233 356.52 142.528 356.52C139.824 356.52 137.631 359.097 137.631 362.275C137.631 365.454 139.824 368.031 142.528 368.031Z" fill="url(#paint8_linear_265_4752)"/>
<path d="M125.077 363.523C124.842 363.524 124.613 363.441 124.419 363.285C124.225 363.13 124.076 362.91 123.99 362.653L121.058 353.873C121.002 353.705 120.974 353.526 120.977 353.346C120.98 353.166 121.013 352.988 121.075 352.823C121.136 352.658 121.224 352.509 121.335 352.384C121.445 352.259 121.575 352.161 121.718 352.095C121.861 352.029 122.013 351.997 122.167 352C122.32 352.004 122.471 352.042 122.612 352.115C122.752 352.187 122.879 352.291 122.985 352.42C123.092 352.55 123.175 352.703 123.231 352.871L126.162 361.651C126.232 361.859 126.256 362.083 126.235 362.305C126.214 362.527 126.147 362.739 126.04 362.924C125.933 363.108 125.789 363.259 125.621 363.364C125.454 363.468 125.267 363.523 125.077 363.523V363.523Z" fill="url(#paint9_linear_265_4752)"/>
<path d="M119.63 364.031C119.386 364.031 119.149 363.941 118.951 363.774C118.753 363.607 118.604 363.372 118.525 363.101L116.198 355.061C116.149 354.89 116.128 354.71 116.138 354.53C116.148 354.35 116.188 354.175 116.256 354.013C116.323 353.852 116.418 353.707 116.533 353.588C116.648 353.47 116.782 353.378 116.927 353.32C117.072 353.262 117.225 353.239 117.378 353.25C117.531 353.262 117.681 353.309 117.818 353.388C117.956 353.468 118.079 353.578 118.18 353.714C118.281 353.849 118.358 354.006 118.408 354.177L120.735 362.217C120.784 362.387 120.805 362.568 120.795 362.747C120.785 362.927 120.745 363.103 120.678 363.265C120.61 363.426 120.516 363.571 120.401 363.69C120.286 363.809 120.152 363.9 120.007 363.958C119.885 364.006 119.758 364.03 119.63 364.031V364.031Z" fill="url(#paint10_linear_265_4752)"/>
<path d="M113.982 363.628C113.725 363.629 113.475 363.531 113.27 363.348C113.066 363.165 112.918 362.908 112.851 362.617L111.145 355.257C111.101 355.082 111.087 354.898 111.104 354.717C111.121 354.535 111.169 354.359 111.245 354.2C111.32 354.04 111.422 353.9 111.545 353.787C111.667 353.674 111.808 353.592 111.958 353.544C112.108 353.496 112.264 353.483 112.419 353.507C112.573 353.532 112.721 353.592 112.855 353.684C112.989 353.777 113.106 353.9 113.199 354.046C113.292 354.193 113.36 354.36 113.397 354.537L115.103 361.895C115.144 362.069 115.154 362.251 115.135 362.429C115.116 362.608 115.066 362.78 114.99 362.937C114.914 363.093 114.813 363.23 114.691 363.34C114.57 363.451 114.431 363.532 114.284 363.579C114.185 363.611 114.084 363.628 113.982 363.628V363.628Z" fill="url(#paint11_linear_265_4752)"/>
<path d="M477.572 70.3464L376.689 58.7222L370.308 135.2L471.191 146.824L477.572 70.3464Z" fill="#F4CFDE"/>
<path d="M423.407 110.467C423.107 110.468 422.817 110.333 422.598 110.091L378.378 61.2483C378.15 60.9964 378.017 60.6485 378.007 60.281C377.998 59.9136 378.112 59.5566 378.327 59.2888C378.541 59.0209 378.837 58.8641 379.15 58.8527C379.463 58.8414 379.766 58.9765 379.994 59.2283L423.548 107.335L474.23 70.0895C474.362 69.993 474.508 69.9278 474.661 69.8978C474.813 69.8677 474.97 69.8732 475.121 69.9141C475.272 69.9551 475.414 70.0305 475.54 70.1362C475.667 70.2419 475.774 70.3757 475.856 70.53C475.938 70.6844 475.993 70.8563 476.019 71.0358C476.045 71.2153 476.04 71.3991 476.005 71.5764C475.97 71.7538 475.906 71.9214 475.816 72.0697C475.726 72.2179 475.612 72.3439 475.481 72.4404L424.028 110.252C423.842 110.39 423.627 110.465 423.407 110.467V110.467Z" fill="#F55B7A"/>
<path d="M477.564 90.5548C487.04 90.5548 494.722 81.5272 494.722 70.3912C494.722 59.2551 487.04 50.2275 477.564 50.2275C468.088 50.2275 460.406 59.2551 460.406 70.3912C460.406 81.5272 468.088 90.5548 477.564 90.5548Z" fill="#E53030"/>
<path d="M485.742 84.0552C485.495 84.0557 485.251 83.9916 485.028 83.8674C484.804 83.7433 484.607 83.5623 484.451 83.3376L468.095 59.9341C467.956 59.7349 467.852 59.5056 467.788 59.259C467.724 59.0125 467.703 58.7536 467.724 58.4972C467.745 58.2407 467.81 57.9918 467.913 57.7645C468.016 57.5372 468.157 57.3361 468.326 57.1726C468.668 56.8423 469.108 56.6854 469.549 56.7362C469.767 56.7614 469.979 56.8368 470.172 56.9582C470.366 57.0796 470.537 57.2446 470.676 57.4437L487.031 80.8472C487.232 81.1344 487.359 81.4827 487.398 81.8515C487.437 82.2203 487.385 82.5945 487.25 82.9305C487.115 83.2666 486.902 83.5506 486.635 83.7497C486.368 83.9488 486.058 84.0547 485.742 84.0552V84.0552Z" fill="#FEFFFF"/>
<path d="M467.607 81.9634C467.263 81.9634 466.927 81.8384 466.645 81.6056C466.364 81.3728 466.151 81.0434 466.034 80.6626C465.918 80.2818 465.905 79.8681 465.997 79.4782C466.088 79.0883 466.28 78.7411 466.546 78.4843L486.461 59.2695C486.804 58.9393 487.243 58.7823 487.684 58.8331C488.125 58.884 488.53 59.1385 488.811 59.5406C489.092 59.9427 489.226 60.4596 489.183 60.9775C489.139 61.4954 488.923 61.9718 488.581 62.3021L468.666 81.5222C468.368 81.8093 467.993 81.9653 467.607 81.9634Z" fill="#FEFFFF"/>
<path d="M424.438 206.894L338.177 206.611L338.022 272.005L424.283 272.288L424.438 206.894Z" fill="#F4CFDE"/>
<path d="M381.326 245.953C381.072 245.981 380.818 245.894 380.616 245.71L339.8 208.532C339.607 208.334 339.485 208.056 339.461 207.756C339.436 207.456 339.51 207.157 339.668 206.919C339.825 206.681 340.054 206.523 340.307 206.477C340.56 206.431 340.819 206.5 341.03 206.671L381.235 243.294L421.606 206.929C421.817 206.742 422.083 206.661 422.345 206.704C422.607 206.746 422.844 206.908 423.005 207.154C423.166 207.401 423.238 207.712 423.205 208.021C423.172 208.329 423.036 208.61 422.828 208.802L381.842 245.716C381.692 245.85 381.514 245.932 381.326 245.953V245.953Z" fill="#F55B7A"/>
<path d="M434.775 218.992C440.477 212.291 440.477 201.427 434.775 194.726C429.073 188.025 419.827 188.025 414.125 194.726C408.423 201.427 408.423 212.291 414.125 218.992C419.827 225.693 429.073 225.693 434.775 218.992Z" fill="#E53030"/>
<path d="M432.319 217.658C432.11 217.681 431.899 217.65 431.701 217.566C431.503 217.482 431.324 217.348 431.176 217.172L415.71 198.9C415.573 198.746 415.463 198.561 415.387 198.357C415.312 198.152 415.271 197.931 415.269 197.708C415.267 197.485 415.303 197.264 415.375 197.057C415.447 196.851 415.554 196.663 415.688 196.506C415.823 196.348 415.983 196.224 416.159 196.141C416.336 196.057 416.524 196.016 416.714 196.02C416.904 196.024 417.091 196.072 417.265 196.162C417.439 196.252 417.595 196.383 417.726 196.545L433.191 214.818C433.381 215.042 433.512 215.325 433.57 215.634C433.628 215.942 433.611 216.264 433.52 216.562C433.428 216.859 433.267 217.12 433.054 217.314C432.842 217.508 432.587 217.627 432.319 217.658V217.658Z" fill="#FEFFFF"/>
<path d="M416.811 217.607C416.519 217.64 416.226 217.566 415.972 217.396C415.717 217.226 415.514 216.967 415.389 216.655C415.264 216.344 415.225 215.995 415.276 215.656C415.327 215.317 415.465 215.004 415.673 214.762L431.222 196.588C431.492 196.289 431.85 196.126 432.22 196.134C432.59 196.141 432.944 196.317 433.205 196.626C433.466 196.934 433.614 197.351 433.618 197.786C433.622 198.221 433.481 198.641 433.226 198.956L417.677 217.129C417.445 217.402 417.138 217.571 416.811 217.607V217.607Z" fill="#FEFFFF"/>
<path d="M523.18 284.3L463.952 284.106L463.846 329.006L523.073 329.2L523.18 284.3Z" fill="#F4CFDE"/>
<path d="M493.588 311.099C493.413 311.12 493.239 311.06 493.101 310.933L465.075 285.405C465.003 285.34 464.944 285.259 464.899 285.167C464.854 285.074 464.825 284.973 464.814 284.867C464.802 284.762 464.809 284.654 464.833 284.552C464.857 284.449 464.897 284.353 464.953 284.269C465.008 284.185 465.077 284.115 465.156 284.062C465.235 284.009 465.321 283.976 465.411 283.962C465.501 283.949 465.592 283.956 465.679 283.985C465.766 284.013 465.848 284.061 465.92 284.126L493.525 309.27L521.246 284.303C521.391 284.172 521.574 284.114 521.755 284.142C521.937 284.17 522.101 284.282 522.212 284.452C522.323 284.622 522.373 284.838 522.349 285.051C522.325 285.264 522.23 285.457 522.085 285.588L493.942 310.935C493.84 311.028 493.717 311.085 493.588 311.099V311.099Z" fill="#F55B7A"/>
<path d="M530.286 292.588C534.201 287.987 534.201 280.527 530.286 275.926C526.371 271.325 520.023 271.325 516.107 275.926C512.192 280.527 512.192 287.987 516.107 292.588C520.023 297.19 526.371 297.19 530.286 292.588Z" fill="#E53030"/>
<path d="M528.6 291.67C528.456 291.686 528.311 291.665 528.175 291.608C528.039 291.55 527.916 291.458 527.814 291.338L517.196 278.791C517.022 278.574 516.927 278.285 516.931 277.987C516.935 277.688 517.038 277.403 517.218 277.192C517.399 276.982 517.642 276.862 517.896 276.858C518.15 276.855 518.395 276.968 518.579 277.174L529.198 289.72C529.329 289.874 529.419 290.069 529.459 290.281C529.5 290.493 529.488 290.714 529.425 290.918C529.362 291.123 529.251 291.302 529.105 291.435C528.959 291.568 528.784 291.65 528.6 291.67V291.67Z" fill="#FEFFFF"/>
<path d="M517.952 291.637C517.751 291.659 517.55 291.609 517.375 291.492C517.2 291.375 517.061 291.197 516.975 290.983C516.89 290.769 516.862 290.529 516.897 290.296C516.932 290.063 517.028 289.849 517.17 289.682L527.847 277.203C527.937 277.097 528.045 277.013 528.164 276.956C528.282 276.899 528.409 276.869 528.538 276.87C528.666 276.87 528.793 276.9 528.911 276.958C529.029 277.016 529.136 277.101 529.227 277.208C529.317 277.315 529.389 277.442 529.437 277.581C529.486 277.72 529.511 277.869 529.511 278.02C529.51 278.171 529.485 278.32 529.435 278.459C529.386 278.598 529.314 278.724 529.223 278.83L518.547 291.307C518.387 291.495 518.177 291.611 517.952 291.637V291.637Z" fill="#FEFFFF"/>
<path d="M328.659 46.4966L282.088 46.3438L282.004 81.6489L328.575 81.8017L328.659 46.4966Z" fill="#F4CFDE"/>
<path d="M305.38 67.5766C305.243 67.5913 305.106 67.5437 304.997 67.4437L282.96 47.3771C282.853 47.2712 282.784 47.1203 282.769 46.9562C282.754 46.7921 282.794 46.6276 282.88 46.4972C282.966 46.3667 283.092 46.2806 283.231 46.2569C283.37 46.2331 283.511 46.2736 283.625 46.3698L305.326 66.1374L327.128 46.512C327.242 46.4093 327.386 46.364 327.528 46.3862C327.671 46.4084 327.8 46.4962 327.887 46.6303C327.975 46.7644 328.013 46.9338 327.995 47.1013C327.976 47.2688 327.901 47.4206 327.787 47.5233L305.659 67.457C305.577 67.5261 305.481 67.5674 305.38 67.5766Z" fill="#F55B7A"/>
<path d="M334.236 53.0205C337.314 49.4027 337.314 43.5372 334.236 39.9194C331.157 36.3017 326.166 36.3017 323.088 39.9194C320.009 43.5372 320.009 49.4027 323.088 53.0205C326.166 56.6383 331.157 56.6383 334.236 53.0205Z" fill="#E53030"/>
<path d="M332.909 52.2995C332.796 52.3118 332.682 52.2943 332.575 52.2484C332.468 52.2024 332.372 52.1291 332.292 52.0337L323.943 42.1679C323.8 41.9984 323.719 41.7688 323.72 41.5297C323.72 41.2905 323.802 41.0614 323.946 40.8928C324.09 40.7241 324.285 40.6298 324.489 40.6304C324.692 40.631 324.887 40.7266 325.031 40.8961L333.38 50.7646C333.483 50.8854 333.554 51.0381 333.586 51.2049C333.618 51.3717 333.608 51.5456 333.559 51.7064C333.51 51.8671 333.422 52.008 333.307 52.1126C333.192 52.2172 333.054 52.2811 332.909 52.2969V52.2995Z" fill="#FEFFFF"/>
<path d="M324.538 52.2729C324.38 52.2908 324.222 52.2511 324.085 52.1591C323.947 52.0671 323.837 51.9274 323.77 51.7592C323.703 51.5909 323.681 51.4023 323.709 51.2193C323.737 51.0362 323.812 50.8677 323.924 50.7367L332.318 40.9306C332.462 40.762 332.658 40.6676 332.861 40.6682C333.065 40.6688 333.26 40.7644 333.403 40.934C333.547 41.1035 333.627 41.3331 333.626 41.5722C333.626 41.8113 333.544 42.0404 333.4 42.2091L325.003 52.0151C324.878 52.1621 324.714 52.2532 324.538 52.2729V52.2729Z" fill="#FEFFFF"/>
<path d="M115.39 134.553C148.843 104.585 188.18 83.7216 229.447 74.1228C231.572 79.2484 232.559 84.4325 232.133 90.1123C209.364 104.095 186.417 119.109 163.65 133.092C176.21 149.557 186.466 168.682 193.576 189.156C186.96 204.265 174.4 216.038 160.177 219.099C148.015 210.311 137.347 197.305 131.325 182.094C128.353 208.495 125.178 234.224 122.206 260.624C115.76 258.753 109.118 256.355 103.184 252.854C103.213 217.821 105.315 181.079 109.571 146.187C110.137 141.562 112.226 137.384 115.39 134.553V134.553Z" fill="url(#paint12_linear_265_4752)"/>
<path d="M122.749 73.3083C129.465 81.8293 132.783 93.9065 131.57 105.434C130.761 113.141 135.375 120.957 137.529 128.305C138.05 130.084 138.576 132.006 138.115 133.807C137.54 136.048 135.473 137.464 133.478 137.428C131.484 137.393 129.628 136.134 128.229 134.469C126.83 132.804 125.826 130.748 124.837 128.719C122.236 123.379 119.536 117.689 114.634 115.528C112.631 114.647 110.373 114.489 108.586 113.107C107.719 112.435 107.015 111.509 106.545 110.42C106.075 109.331 105.855 108.117 105.907 106.898C105.958 105.678 106.28 104.496 106.839 103.467C107.399 102.438 108.177 101.599 109.098 101.032C106.61 92.0367 110.21 80.1536 116.561 74.3449C118.13 72.919 121.406 71.6047 122.749 73.3083Z" fill="#FFD6BB"/>
<path d="M118.019 83.6818H117.975L113.519 83.1808C113.46 83.1741 113.402 83.1537 113.349 83.1208C113.297 83.0879 113.25 83.0431 113.212 82.989C113.174 82.9348 113.146 82.8725 113.128 82.8054C113.111 82.7383 113.105 82.6679 113.11 82.5981C113.116 82.5283 113.133 82.4605 113.161 82.3986C113.189 82.3366 113.228 82.2818 113.274 82.2372C113.32 82.1926 113.373 82.1591 113.43 82.1386C113.487 82.1181 113.547 82.111 113.606 82.1177L118.062 82.6187C118.122 82.622 118.18 82.6391 118.234 82.6691C118.289 82.6991 118.337 82.7413 118.378 82.7934C118.418 82.8455 118.449 82.9064 118.469 82.9726C118.49 83.0389 118.499 83.1092 118.496 83.1795C118.493 83.2498 118.479 83.3188 118.453 83.3825C118.427 83.4462 118.392 83.5034 118.347 83.5508C118.303 83.5982 118.251 83.6348 118.195 83.6587C118.138 83.6825 118.079 83.6931 118.019 83.6898V83.6818Z" fill="#604D91"/>
<path d="M120.374 83.1992C120.29 83.2011 120.207 83.1755 120.135 83.1251C120.063 83.0748 120.004 83.0018 119.965 82.9144C119.926 82.8269 119.908 82.7284 119.914 82.6299C119.92 82.5314 119.95 82.4368 119.999 82.3567L122.419 78.245C122.453 78.1871 122.496 78.1376 122.547 78.0994C122.597 78.0612 122.653 78.035 122.712 78.0224C122.771 78.0097 122.832 78.0109 122.89 78.0257C122.949 78.0405 123.004 78.0688 123.054 78.1088C123.103 78.1489 123.145 78.1999 123.178 78.2591C123.21 78.3183 123.232 78.3844 123.243 78.4537C123.254 78.523 123.253 78.5941 123.24 78.663C123.228 78.7318 123.204 78.7971 123.17 78.855L120.751 82.9667C120.709 83.0387 120.653 83.0977 120.587 83.1382C120.522 83.1788 120.448 83.1997 120.374 83.1992Z" fill="#604D91"/>
<path d="M125 100.173C124.922 100.175 124.844 100.152 124.775 100.107C124.706 100.063 124.649 99.9979 124.608 99.919C124.567 99.8401 124.544 99.75 124.542 99.6576C124.539 99.5652 124.558 99.4737 124.595 99.3921C125.636 97.0107 125.071 93.8213 123.292 92.1322C123.198 92.0427 123.138 91.9129 123.125 91.7713C123.112 91.6298 123.148 91.4881 123.224 91.3774C123.3 91.2667 123.411 91.1961 123.531 91.1812C123.652 91.1662 123.772 91.2081 123.866 91.2977C125.965 93.291 126.641 97.0625 125.406 99.8824C125.368 99.9705 125.31 100.044 125.239 100.096C125.167 100.147 125.084 100.174 125 100.173Z" fill="#604D91"/>
<path d="M123.714 104.263H123.688C121.404 104.109 119.171 103.404 117.129 102.192C117.021 102.128 116.939 102.016 116.901 101.88C116.863 101.745 116.873 101.598 116.927 101.47C116.982 101.343 117.078 101.247 117.193 101.203C117.308 101.158 117.433 101.17 117.541 101.234C119.472 102.381 121.583 103.047 123.742 103.191C123.863 103.195 123.978 103.255 124.061 103.359C124.144 103.462 124.189 103.6 124.186 103.742C124.182 103.884 124.131 104.019 124.043 104.117C123.955 104.215 123.838 104.268 123.717 104.264L123.714 104.263Z" fill="#604D91"/>
<path d="M118.419 93.5715C119.234 93.2569 119.46 91.4474 118.924 89.53C118.387 87.6125 117.292 86.3131 116.478 86.6277C115.663 86.9423 115.437 88.7517 115.973 90.6692C116.51 92.5866 117.605 93.886 118.419 93.5715Z" fill="#604D91"/>
<path d="M125.546 90.4648C126.361 90.1502 126.587 88.3408 126.051 86.4233C125.514 84.5058 124.419 83.2064 123.605 83.521C122.79 83.8356 122.564 85.645 123.101 87.5625C123.637 89.4799 124.732 90.7793 125.546 90.4648Z" fill="#604D91"/>
<path d="M533.223 225.347H451.178C450.878 225.347 450.591 225.207 450.379 224.957C450.167 224.708 450.047 224.37 450.047 224.018C450.047 223.665 450.167 223.327 450.379 223.078C450.591 222.829 450.878 222.689 451.178 222.689H533.223C533.523 222.689 533.81 222.829 534.022 223.078C534.234 223.327 534.354 223.665 534.354 224.018C534.354 224.37 534.234 224.708 534.022 224.957C533.81 225.207 533.523 225.347 533.223 225.347Z" fill="#E3E9FF"/>
<path d="M554.194 239.38H472.15C471.85 239.38 471.562 239.24 471.35 238.991C471.138 238.742 471.019 238.404 471.019 238.051C471.019 237.699 471.138 237.361 471.35 237.111C471.562 236.862 471.85 236.722 472.15 236.722H554.194C554.494 236.722 554.782 236.862 554.994 237.111C555.206 237.361 555.325 237.699 555.325 238.051C555.325 238.404 555.206 238.742 554.994 238.991C554.782 239.24 554.494 239.38 554.194 239.38V239.38Z" fill="#E3E9FF"/>
<path d="M598.957 135.151H516.913C516.613 135.151 516.325 135.01 516.113 134.761C515.901 134.512 515.782 134.174 515.782 133.822C515.782 133.469 515.901 133.131 516.113 132.882C516.325 132.633 516.613 132.493 516.913 132.493H598.957C599.257 132.493 599.545 132.633 599.757 132.882C599.969 133.131 600.088 133.469 600.088 133.822C600.088 134.174 599.969 134.512 599.757 134.761C599.545 135.01 599.257 135.151 598.957 135.151Z" fill="#E3E9FF"/>
<path d="M432.602 50.0641H350.56C350.26 50.0641 349.972 49.9241 349.76 49.6748C349.548 49.4256 349.429 49.0876 349.429 48.7352C349.429 48.3827 349.548 48.0447 349.76 47.7955C349.972 47.5463 350.26 47.4062 350.56 47.4062H432.602C432.902 47.4062 433.189 47.5463 433.401 47.7955C433.613 48.0447 433.733 48.3827 433.733 48.7352C433.733 49.0876 433.613 49.4256 433.401 49.6748C433.189 49.9241 432.902 50.0641 432.602 50.0641V50.0641Z" fill="#E3E9FF"/>
<path d="M450.871 169.613H368.826C368.526 169.613 368.238 169.473 368.026 169.224C367.814 168.975 367.695 168.637 367.695 168.284C367.695 167.932 367.814 167.594 368.026 167.345C368.238 167.096 368.526 166.956 368.826 166.956H450.871C451.17 166.956 451.458 167.096 451.67 167.345C451.882 167.594 452.001 167.932 452.001 168.284C452.001 168.637 451.882 168.975 451.67 169.224C451.458 169.473 451.17 169.613 450.871 169.613Z" fill="#E3E9FF"/>
<path d="M617.869 322.44H535.823C535.524 322.44 535.236 322.3 535.024 322.051C534.812 321.801 534.693 321.463 534.693 321.111C534.693 320.758 534.812 320.42 535.024 320.171C535.236 319.922 535.524 319.782 535.823 319.782H617.869C618.169 319.782 618.457 319.922 618.669 320.171C618.881 320.42 619 320.758 619 321.111C619 321.463 618.881 321.801 618.669 322.051C618.457 322.3 618.169 322.44 617.869 322.44Z" fill="#E3E9FF"/>
<path d="M542.449 361.527H460.405C460.105 361.527 459.817 361.387 459.605 361.138C459.393 360.889 459.274 360.551 459.274 360.198C459.274 359.846 459.393 359.508 459.605 359.258C459.817 359.009 460.105 358.869 460.405 358.869H542.449C542.749 358.869 543.037 359.009 543.249 359.258C543.461 359.508 543.58 359.846 543.58 360.198C543.58 360.551 543.461 360.889 543.249 361.138C543.037 361.387 542.749 361.527 542.449 361.527Z" fill="#E3E9FF"/>
<path d="M437.081 297.366H355.037C354.737 297.366 354.449 297.226 354.237 296.977C354.025 296.727 353.906 296.389 353.906 296.037C353.906 295.684 354.025 295.346 354.237 295.097C354.449 294.848 354.737 294.708 355.037 294.708H437.081C437.381 294.708 437.669 294.848 437.881 295.097C438.093 295.346 438.212 295.684 438.212 296.037C438.212 296.389 438.093 296.727 437.881 296.977C437.669 297.226 437.381 297.366 437.081 297.366Z" fill="#E3E9FF"/>
<path d="M595.216 43.9444H513.174C512.874 43.9444 512.586 43.8044 512.374 43.5552C512.162 43.306 512.043 42.968 512.043 42.6155C512.043 42.2631 512.162 41.9251 512.374 41.6759C512.586 41.4266 512.874 41.2866 513.174 41.2866H595.216C595.516 41.2866 595.804 41.4266 596.016 41.6759C596.228 41.9251 596.347 42.2631 596.347 42.6155C596.347 42.968 596.228 43.306 596.016 43.5552C595.804 43.8044 595.516 43.9444 595.216 43.9444V43.9444Z" fill="#E3E9FF"/>
<path d="M563.383 108.547H481.332C481.032 108.547 480.744 108.407 480.532 108.158C480.32 107.909 480.201 107.571 480.201 107.218C480.201 106.866 480.32 106.528 480.532 106.278C480.744 106.029 481.032 105.889 481.332 105.889H563.383C563.683 105.889 563.971 106.029 564.183 106.278C564.395 106.528 564.514 106.866 564.514 107.218C564.514 107.571 564.395 107.909 564.183 108.158C563.971 108.407 563.683 108.547 563.383 108.547Z" fill="#E3E9FF"/>
<path d="M314.968 163.173C314.706 163.174 314.451 163.071 314.245 162.882C314.039 162.692 313.893 162.426 313.831 162.127C313.769 161.828 313.794 161.514 313.903 161.234C314.011 160.954 314.197 160.725 314.429 160.583L335.21 147.944C335.346 147.861 335.494 147.811 335.647 147.795C335.8 147.78 335.954 147.8 336.1 147.855C336.246 147.909 336.381 147.997 336.498 148.113C336.616 148.229 336.712 148.372 336.783 148.531C336.853 148.691 336.896 148.866 336.909 149.046C336.922 149.225 336.905 149.406 336.859 149.577C336.812 149.749 336.737 149.908 336.639 150.046C336.54 150.184 336.419 150.297 336.283 150.38L315.504 163.019C315.338 163.121 315.154 163.174 314.968 163.173V163.173Z" fill="#F4CFDE"/>
<path d="M296.667 113.666C296.389 113.666 296.121 113.549 295.91 113.336C295.699 113.124 295.559 112.83 295.516 112.507C295.473 112.185 295.529 111.854 295.675 111.576C295.82 111.298 296.045 111.09 296.31 110.99L323.321 100.757C323.468 100.697 323.623 100.672 323.779 100.684C323.934 100.696 324.085 100.744 324.224 100.825C324.364 100.907 324.487 101.02 324.589 101.159C324.69 101.297 324.767 101.458 324.814 101.632C324.862 101.806 324.88 101.989 324.866 102.171C324.853 102.353 324.809 102.53 324.736 102.692C324.664 102.853 324.565 102.996 324.445 103.112C324.324 103.228 324.186 103.315 324.037 103.367L297.026 113.6C296.91 113.644 296.789 113.666 296.667 113.666V113.666Z" fill="#F4CFDE"/>
<path d="M253.794 94.2638C253.539 94.2644 253.292 94.1672 253.089 93.987C252.885 93.8068 252.738 93.5535 252.669 93.2658C252.599 92.978 252.612 92.6715 252.705 92.393C252.797 92.1145 252.965 91.8792 253.182 91.7229C264.905 83.279 272.72 68.0151 273.576 51.8887C273.596 51.5271 273.738 51.1897 273.97 50.9505C274.201 50.7112 274.504 50.5895 274.812 50.612C275.12 50.6345 275.408 50.7993 275.613 51.0704C275.818 51.3416 275.923 51.6969 275.905 52.0588C275.464 60.3792 273.227 68.6889 269.439 76.0896C265.651 83.4903 260.45 89.7043 254.399 94.0605C254.217 94.1928 254.008 94.2632 253.794 94.2638V94.2638Z" fill="#F4CFDE"/>
<path d="M226.62 65.4704C226.36 65.4708 226.107 65.3691 225.902 65.1814C225.696 64.9938 225.55 64.7309 225.487 64.4346C225.423 64.1383 225.445 63.8254 225.55 63.5458C225.655 63.2661 225.837 63.0356 226.066 62.8909L249.282 48.2397C249.417 48.1522 249.565 48.0971 249.719 48.0776C249.872 48.058 250.027 48.0744 250.175 48.1257C250.323 48.1771 250.461 48.2624 250.581 48.3767C250.7 48.491 250.8 48.6321 250.873 48.7918C250.946 48.9515 250.991 49.1266 251.006 49.307C251.021 49.4874 251.006 49.6695 250.96 49.8429C250.915 50.0162 250.841 50.1773 250.743 50.3168C250.644 50.4563 250.523 50.5714 250.387 50.6556L227.174 65.3069C227.004 65.4151 226.813 65.4713 226.62 65.4704V65.4704Z" fill="#F4CFDE"/>
<path d="M214.859 116.792C214.597 116.792 214.342 116.688 214.136 116.498C213.93 116.307 213.784 116.04 213.723 115.74C213.661 115.441 213.688 115.125 213.798 114.845C213.908 114.565 214.095 114.337 214.329 114.197L237.526 100.333C237.662 100.246 237.813 100.193 237.967 100.176C238.122 100.159 238.278 100.178 238.427 100.232C238.575 100.287 238.712 100.376 238.831 100.494C238.95 100.612 239.047 100.756 239.118 100.919C239.188 101.082 239.23 101.26 239.242 101.442C239.253 101.624 239.233 101.807 239.183 101.98C239.134 102.153 239.055 102.313 238.952 102.449C238.849 102.586 238.724 102.698 238.584 102.777L215.382 116.643C215.22 116.739 215.041 116.79 214.859 116.792V116.792Z" fill="#F4CFDE"/>
<path d="M233.443 210.507C233.174 210.507 232.914 210.399 232.705 210.2C232.496 210 232.353 209.723 232.298 209.413C232.244 209.104 232.282 208.782 232.406 208.502C232.53 208.221 232.733 208 232.98 207.875L286.694 180.641C286.836 180.569 286.987 180.531 287.141 180.529C287.294 180.526 287.447 180.559 287.59 180.626C287.732 180.693 287.862 180.792 287.972 180.918C288.083 181.044 288.171 181.194 288.231 181.36C288.292 181.525 288.324 181.704 288.326 181.884C288.329 182.065 288.3 182.244 288.244 182.411C288.187 182.579 288.102 182.732 287.995 182.861C287.888 182.991 287.761 183.094 287.619 183.166L233.905 210.4C233.759 210.473 233.602 210.509 233.443 210.507V210.507Z" fill="#F4CFDE"/>
<path d="M289.391 193.863C289.121 193.864 288.858 193.754 288.649 193.551C288.44 193.349 288.297 193.068 288.245 192.756C288.193 192.444 288.235 192.12 288.363 191.84C288.492 191.56 288.7 191.341 288.95 191.221L331.562 170.831C331.703 170.763 331.855 170.728 332.009 170.73C332.162 170.731 332.314 170.767 332.455 170.837C332.596 170.907 332.724 171.009 332.832 171.137C332.94 171.265 333.025 171.417 333.082 171.584C333.14 171.751 333.17 171.93 333.169 172.11C333.168 172.29 333.136 172.468 333.077 172.634C333.017 172.8 332.931 172.95 332.822 173.077C332.712 173.204 332.583 173.304 332.441 173.372L289.834 193.762C289.693 193.83 289.543 193.864 289.391 193.863V193.863Z" fill="#F4CFDE"/>
</g>
<defs>
<linearGradient id="paint0_linear_265_4752" x1="371.274" y1="64.978" x2="363.227" y2="133.458" gradientUnits="userSpaceOnUse">
<stop stop-color="#323FD4"/>
<stop offset="1" stop-color="#F55B7A"/>
</linearGradient>
<linearGradient id="paint1_linear_265_4752" x1="349.874" y1="122.354" x2="359.571" y2="120.602" gradientUnits="userSpaceOnUse">
<stop stop-color="#323FD4"/>
<stop offset="1" stop-color="#F55B7A"/>
</linearGradient>
<linearGradient id="paint2_linear_265_4752" x1="348.083" y1="98.7216" x2="357.563" y2="98.7216" gradientUnits="userSpaceOnUse">
<stop stop-color="#323FD4"/>
<stop offset="1" stop-color="#F55B7A"/>
</linearGradient>
<linearGradient id="paint3_linear_265_4752" x1="349.389" y1="92.5774" x2="358.308" y2="92.5774" gradientUnits="userSpaceOnUse">
<stop stop-color="#323FD4"/>
<stop offset="1" stop-color="#F55B7A"/>
</linearGradient>
<linearGradient id="paint4_linear_265_4752" x1="349.826" y1="84.852" x2="358.233" y2="84.852" gradientUnits="userSpaceOnUse">
<stop stop-color="#323FD4"/>
<stop offset="1" stop-color="#F55B7A"/>
</linearGradient>
<linearGradient id="paint5_linear_265_4752" x1="92.1191" y1="378.576" x2="150.613" y2="378.576" gradientUnits="userSpaceOnUse">
<stop stop-color="#323FD4"/>
<stop offset="1" stop-color="#F55B7A"/>
</linearGradient>
<linearGradient id="paint6_linear_265_4752" x1="87.7085" y1="91.5" x2="119.418" y2="101.648" gradientUnits="userSpaceOnUse">
<stop stop-color="#525252"/>
<stop offset="0.520833" stop-color="#7F7F7F"/>
<stop offset="1" stop-color="#5E5E5E"/>
</linearGradient>
<linearGradient id="paint7_linear_265_4752" x1="129.042" y1="274.5" x2="58.8062" y2="131.127" gradientUnits="userSpaceOnUse">
<stop stop-color="#9B9B9B"/>
<stop offset="0.453125" stop-color="#F5F5F5"/>
<stop offset="0.984375" stop-color="#989898"/>
</linearGradient>
<linearGradient id="paint8_linear_265_4752" x1="137.631" y1="362.549" x2="147.426" y2="362.549" gradientUnits="userSpaceOnUse">
<stop stop-color="#323FD4"/>
<stop offset="1" stop-color="#F55B7A"/>
</linearGradient>
<linearGradient id="paint9_linear_265_4752" x1="120.977" y1="358.036" x2="126.243" y2="358.036" gradientUnits="userSpaceOnUse">
<stop stop-color="#323FD4"/>
<stop offset="1" stop-color="#F55B7A"/>
</linearGradient>
<linearGradient id="paint10_linear_265_4752" x1="116.136" y1="358.896" x2="120.797" y2="358.896" gradientUnits="userSpaceOnUse">
<stop stop-color="#323FD4"/>
<stop offset="1" stop-color="#F55B7A"/>
</linearGradient>
<linearGradient id="paint11_linear_265_4752" x1="111.097" y1="358.803" x2="115.144" y2="358.803" gradientUnits="userSpaceOnUse">
<stop stop-color="#323FD4"/>
<stop offset="1" stop-color="#F55B7A"/>
</linearGradient>
<linearGradient id="paint12_linear_265_4752" x1="103.184" y1="171.814" x2="232.23" y2="171.814" gradientUnits="userSpaceOnUse">
<stop stop-color="#323FD4"/>
<stop offset="1" stop-color="#F55B7A"/>
</linearGradient>
<clipPath id="clip0_265_4752">
<rect width="619" height="421" fill="white"/>
</clipPath>
</defs>
</svg>