<svg xmlns="http://www.w3.org/2000/svg" xmlns:xlink="http://www.w3.org/1999/xlink" width="438" height="304" viewBox="0 0 538 404" fill="none" xmlns:v="https://vecta.io/nano"><style><![CDATA[.B{fill:#fbba8f}.C{opacity:.4}.D{fill:#d28476}.E{fill:#303133}.F{fill:#6a6a6a}.G{fill:#4f093c}.H{fill:#f89e63}]]></style><g clip-path="url(#V)"><path d="M455 272h-20v95h20v-95z" fill="url(#A)"/><path d="M508.277 354.975H379.569c-2.484.003-4.864.957-6.62 2.653s-2.741 3.996-2.741 6.393v.04c0 2.396.987 4.694 2.742 6.388s4.136 2.646 6.619 2.646h128.708a9.65 9.65 0 0 0 3.582-.688c1.136-.454 2.168-1.119 3.037-1.958s1.558-1.835 2.028-2.931a8.77 8.77 0 0 0 .712-3.457v-.04a8.79 8.79 0 0 0-.709-3.461 9.03 9.03 0 0 0-2.028-2.934c-.869-.84-1.901-1.507-3.037-1.962s-2.355-.689-3.585-.689h0z" fill="url(#B)"/><path d="M537.341 269.741v2.913c0 5.766-4.556 10.402-10.222 10.402H360.727c-5.605 0-10.163-4.636-10.163-10.402v-2.913h186.777z" fill="url(#C)"/><path d="M537.341 260.645v9.096H350.564v-9.096c0-5.765 4.558-10.398 10.163-10.398h166.395c5.666 0 10.223 4.633 10.223 10.398" fill="#f55b7a" class="C"/><path d="M359.765 283.018c-.463-.042-.924-.109-1.379-.2a10.52 10.52 0 0 1-3.884-1.873v-.041l.375.309c.438.303.904.569 1.391.792a10.11 10.11 0 0 0 1.124.478c.563.202 1.144.353 1.736.452l.639.083" fill="#dea186"/><path d="M362.758 283.065c.729-7.044 9.799-11.703 12.558-12.967-1.56.818-3.063 1.735-4.498 2.744-3.449 2.377-6.59 5.645-8.06 10.223zm-5.368-.573a10.11 10.11 0 0 1-1.124-.478l.088.04c.337.165.683.311 1.036.438m4.124-12.691l.09-.051h14.417l-14.507.049" fill="#e41a43" class="C"/><path d="M376.028 269.741h-14.417c7.67-4.215 21.073-4.966 34.724-4.966l11.278.116 10.683.114c5.404 0 10.262-.146 14.103-.673l9.122-1.199.055.011s-11.479 4.041-51.417 4.041h-.868c-5.842 0-9.733.876-13.27 2.556" fill="#e34061" class="C"/><path d="M361.463 283.109a16.31 16.31 0 0 1-1.698-.091l1.188.053.635-.015h1.17l-1.295.053z" fill="#f1c1c5"/><path d="M375.326 270.089l.703-.346h.093l-.796.348" fill="#ad1f23"/><path d="M360.953 283.065c-.397 0-.793-.017-1.188-.052l-.639-.083a9.96 9.96 0 0 1-1.736-.453 9.96 9.96 0 0 0 3.336.574h.862l-.635.014M356.267 282a9.12 9.12 0 0 1-1.39-.793l-.375-.309a11.19 11.19 0 0 0 1.754 1.102" fill="#d57869"/><path d="M362.758 283.065h-2.031a9.94 9.94 0 0 1-3.337-.573 10.14 10.14 0 0 1-1.036-.438l-.088-.04c-.624-.313-1.212-.688-1.755-1.118.293-2.058.75-3.869 1.412-5.382 1.038-2.388 2.978-4.255 5.598-5.713l14.508-.049-.703.346c-2.769 1.266-11.839 5.923-12.558 12.967" fill="#e34061" class="C"/><g class="E"><path d="M491.341 403.123c8.129 0 14.721-6.705 14.721-14.98s-6.582-14.985-14.721-14.985-14.717 6.705-14.717 14.978 6.59 14.979 14.717 14.979v.008zm-94.776 0c8.129 0 14.72-6.705 14.72-14.98s-6.591-14.985-14.72-14.985-14.717 6.705-14.717 14.978 6.588 14.979 14.717 14.979v.008z"/></g><g class="F"><path d="M396.566 394.799c1.364 0 2.697-.391 3.832-1.122a6.72 6.72 0 0 0 2.54-2.988 6.44 6.44 0 0 0 .392-3.847c-.266-1.292-.923-2.478-1.888-3.409s-2.194-1.565-3.532-1.821-2.725-.125-3.985.379-2.338 1.358-3.095 2.453a6.5 6.5 0 0 0-1.162 3.699c0 .874.178 1.74.525 2.548a6.65 6.65 0 0 0 1.495 2.16 6.9 6.9 0 0 0 2.238 1.442c.837.334 1.734.506 2.64.506h0zm94.775 0c1.364 0 2.698-.39 3.833-1.121s2.019-1.771 2.541-2.988.659-2.555.393-3.847-.923-2.478-1.888-3.409-2.194-1.565-3.532-1.822a7.13 7.13 0 0 0-3.986.379c-1.26.504-2.337 1.358-3.095 2.453s-1.162 2.382-1.162 3.699c0 1.765.727 3.458 2.02 4.706a7.02 7.02 0 0 0 4.876 1.95z"/></g><path d="M119.691 302.195l38.424 52.545c8.376 6.003 8.867-2.319 14.164 4.456 3.141 3.924 2.341 4.579 1.786 8.683s-1.169 5.115 1.048 8.085l6.896 9.154c2.834 3.98 6.404 1.842 10.715-2.377 10.961-10.641 17.306-31.028 17.306-31.028l-30.233-38.405c-12.133-11.708-38.799-16.522-54.316-18.424-4.25-.543-8.008 4.279-5.79 7.311h0z" class="E"/><g class="F"><path d="M153.131 319.372l-.375-.117c-.124-.085-.212-.21-.246-.352a.58.58 0 0 1 .058-.421c3.449-5.232 4.621-9.689 3.449-13.315-.395-1.144-1.021-2.201-1.844-3.109a9.4 9.4 0 0 0-2.945-2.181c-.119-.078-.206-.194-.246-.328s-.03-.277.029-.405.161-.231.291-.293a.64.64 0 0 1 .417-.045c1.296.579 2.453 1.411 3.397 2.445a9.84 9.84 0 0 1 2.086 3.56c1.291 3.924.122 8.736-3.573 14.265a.61.61 0 0 1-.208.208c-.085.052-.183.083-.285.088h-.005zm9.791 2.676h-.307a.6.6 0 0 1-.188-.134c-.052-.058-.091-.125-.114-.199s-.032-.149-.021-.224a.51.51 0 0 1 .079-.216c4.189-7.96 3.449-14.087-2.217-18.248-.375-.299-.615-.476-.615-.773.004-.205.092-.4.246-.542.067-.046.145-.076.226-.089a.59.59 0 0 1 .244 0 .65.65 0 0 1 .225.094c.068.044.124.101.167.168.062 0 .062 0 .062.06l.247.121c7.636 5.645 5.604 13.847 2.525 19.732a.72.72 0 0 1-.251.181c-.096.04-.2.061-.304.062l-.004.007z"/></g><path d="M370.578 201.624S241.685 307.13 177.334 311.23c-1.231.059 1.048 10.579 1.231 11.759 2.956 15.811 15.889 36.674 26.79 44.165 14.841 10.164 79.687-48.087 125.074-75.43 9.605-5.766 18.969-14.086 29.004-21.516 29.193-21.579 56.963-44.46 56.963-44.46l-45.816-24.133" fill="#323fd4"/><path d="M282.284 324.856l6.206-4.523-6.204 4.515" fill="#a1a2d1"/><path d="M276.974 328.705c6.77-14.384 19.328-54.804 19.328-54.804v.115c-2.924 15.162-5.645 31.714-7.818 46.324l-6.206 4.523-5.31 3.85" fill="#2834c0"/><path d="M63.467 254.585c-28.574 0-47.726 4.637-47.726 8.975s19.152 8.917 47.726 8.917 47.726-4.637 47.726-8.917-19.152-8.975-47.726-8.975zm0 19.08c-23.77 0-48.957-3.565-48.957-10.105s25.197-10.164 48.957-10.164 48.963 3.566 48.963 10.164-25.253 10.098-48.963 10.098v.007z" fill="url(#D)"/><path d="M66.916 364.724c-13.857 0-26.542-3.269-33.131-5.347-1.131-.351-2.139-.998-2.911-1.869s-1.278-1.933-1.461-3.066l-14.903-90.817a.58.58 0 0 1 .112-.422c.092-.121.228-.205.381-.233.081-.016.165-.016.246 0a.65.65 0 0 1 .229.089c.068.045.127.103.172.17a.56.56 0 0 1 .092.219l14.903 90.816a4.8 4.8 0 0 0 1.181 2.496c.633.706 1.463 1.221 2.391 1.484 10.716 3.327 38.049 9.985 59.488-.119.978-.462 1.826-1.146 2.47-1.993a6.37 6.37 0 0 0 1.226-2.874l13.793-89.814a.59.59 0 0 1 .092-.219.58.58 0 0 1 .172-.17c.069-.045.147-.075.229-.089a.63.63 0 0 1 .245 0 .62.62 0 0 1 .381.234.57.57 0 0 1 .112.421l-13.793 89.818a7.7 7.7 0 0 1-1.467 3.391c-.76 1.003-1.756 1.817-2.906 2.375-8.684 4.103-18.228 5.528-27.343 5.528v-.009z" fill="url(#E)"/><path d="M65.808 292.921c-25.804 0-46.858-6.122-47.173-6.239-.145-.054-.267-.153-.347-.282a.64.64 0 0 1-.084-.433.56.56 0 0 1 .113-.221c.051-.063.115-.117.187-.157a.69.69 0 0 1 .244-.07.65.65 0 0 1 .251.032c.493.118 49.267 14.326 89.233-.832.078-.028.16-.041.242-.036s.162.019.236.052a.6.6 0 0 1 .197.14.57.57 0 0 1 .126.202c.063.142.066.301.009.445a.61.61 0 0 1-.317.328c-14.102 5.291-29.19 7.071-42.922 7.071h.006z" fill="url(#F)"/><path d="M64.514 311.763c-14.506-.001-28.931-2.084-42.802-6.18a.59.59 0 0 1-.21-.123.6.6 0 0 1-.144-.181c-.034-.072-.053-.15-.056-.229a.58.58 0 0 1 .041-.232.61.61 0 0 1 .125-.204c.056-.058.123-.105.197-.14s.153-.055.234-.061.164.01.24.04c.375.117 43.232 14.322 83.198-.833.076-.054.164-.091.257-.106s.188-.012.279.012.174.073.244.134a.58.58 0 0 1 .159.225c.034.084.048.176.039.266a.57.57 0 0 1-.087.256.6.6 0 0 1-.188.194.63.63 0 0 1-.264.087c-14.041 5.351-28.451 7.073-41.26 7.073l-.002.002z" fill="url(#G)"/><path d="M62.05 330.25c-21.615 0-37.011-5.586-37.256-5.648a.62.62 0 0 1-.206-.133c-.059-.057-.105-.125-.137-.2-.064-.15-.064-.318 0-.468a.63.63 0 0 1 .346-.328.66.66 0 0 1 .486.002c.375.181 37.318 13.55 77.222-1.606a.68.68 0 0 1 .486 0c.076.032.146.076.206.132a.64.64 0 0 1 .139.199c.031.075.048.154.05.235a.6.6 0 0 1-.047.233.58.58 0 0 1-.136.199.56.56 0 0 1-.205.134c-13.068 4.846-26.955 7.305-40.954 7.253l.006-.004z" fill="url(#H)"/><path d="M61.68 348.855c-20.383 0-33.685-5.883-33.925-6.004a.56.56 0 0 1-.258-.228.53.53 0 0 1-.068-.331c.011-.076.038-.149.079-.214a.62.62 0 0 1 .339-.306c.148-.056.313-.056.461 0 .309.122 31.408 13.969 71.375-1.127.148-.058.315-.058.462 0a.61.61 0 0 1 .201.119.59.59 0 0 1 .137.184c.03.073.044.152.041.232a.59.59 0 0 1-.056.229c-.034.073-.083.138-.145.192a.68.68 0 0 1-.209.121c-12.229 4.692-25.265 7.112-38.424 7.133h-.009z" fill="url(#I)"/><path d="M44.439 362.11a.59.59 0 0 1-.232-.023.54.54 0 0 1-.337-.291.53.53 0 0 1-.039-.216l-6.105-89.876c-.008-.075 0-.152.024-.224s.063-.138.114-.195.117-.101.187-.132.149-.045.227-.046a.7.7 0 0 1 .443.151c.124.1.208.239.236.392l6.095 89.871a.58.58 0 0 1-.05.228c-.032.073-.079.138-.137.193-.115.113-.271.178-.435.181l.009-.013z" fill="url(#J)"/><path d="M63.652 364.605c-.083.01-.168.001-.247-.025a.57.57 0 0 1-.21-.128.55.55 0 0 1-.133-.203c-.026-.076-.035-.156-.026-.235l-.187-90.946c.001-.157.066-.307.182-.418s.272-.173.435-.173c.158.011.306.075.42.181a.65.65 0 0 1 .197.403l.187 90.945c-.013.153-.082.297-.195.405s-.262.175-.42.187l-.002.007z" fill="url(#K)"/><path d="M83.666 362.11h-.062a.63.63 0 0 1-.4-.193.59.59 0 0 1-.162-.402l4.928-89.87a.56.56 0 0 1 .069-.227c.08-.14.215-.244.375-.289a.67.67 0 0 1 .24-.022c.078.001.155.016.227.045s.135.077.188.133.096.127.12.202a.56.56 0 0 1 .023.224l-4.93 89.869a.58.58 0 0 1-.201.384c-.114.099-.261.153-.414.154v-.008z" fill="url(#L)"/><path d="M514.251 55.582H373.596c-1.731 0-3.445.329-5.043.968a13.21 13.21 0 0 0-4.275 2.757c-1.224 1.181-2.195 2.583-2.857 4.127a12.34 12.34 0 0 0-1.002 4.868v137.714c0 1.67.34 3.324 1.002 4.868s1.633 2.945 2.857 4.127 2.676 2.118 4.274 2.758a13.62 13.62 0 0 0 5.044.969h140.655c1.731-.001 3.444-.33 5.043-.969s3.051-1.577 4.275-2.758 2.194-2.584 2.856-4.127 1.003-3.198 1.003-4.868V68.302a12.34 12.34 0 0 0-1.003-4.868 12.69 12.69 0 0 0-2.856-4.127 13.22 13.22 0 0 0-4.275-2.757 13.59 13.59 0 0 0-5.043-.968" fill="url(#M)"/><path d="M492.882 199.644h-25.504l-.077-.081c.424-2.197-.006-4.468-1.207-6.379-10.343-17.114-24.323-39.402-78.596-116.734a10.28 10.28 0 0 1 3.339-2.161c1.25-.501 2.591-.758 3.944-.757h98.101c2.727.001 5.343 1.046 7.271 2.908s3.011 4.386 3.011 7.018v106.257c0 2.632-1.083 5.157-3.011 7.018s-4.544 2.908-7.271 2.908" fill="url(#N)" class="C"/><path d="M179.488 164.117h-11.203c-1.159 0-2.271-.444-3.091-1.235s-1.28-1.865-1.28-2.984v-17.059a4.09 4.09 0 0 0-1.263-2.943 4.39 4.39 0 0 0-3.048-1.218h-17.806a4.39 4.39 0 0 0-3.048 1.218 4.09 4.09 0 0 0-1.263 2.943v18.069c0 .849-.349 1.664-.97 2.265s-1.464.941-2.344.944h-14.85c-1.146-.017-2.254.394-3.092 1.147a4.22 4.22 0 0 0-1.407 2.895c-.025.558.068 1.116.274 1.639a4.09 4.09 0 0 0 .924 1.4c.404.401.888.719 1.423.932s1.111.319 1.69.309h60.541a4.42 4.42 0 0 0 2.434-.725 4.19 4.19 0 0 0 1.585-1.925c.208-.519.307-1.072.292-1.628-.079-1.099-.587-2.128-1.422-2.878s-1.935-1.167-3.076-1.164v-.002z" fill="url(#O)"/><path d="M338.679 172.439H7.488c-3.94 0-7.143 2.735-7.143 6.122V359.91c0 3.389 3.203 6.122 7.143 6.122h13.495c3.936 0 7.143-2.733 7.143-6.122V205.725c0-3.387 3.201-6.122 7.143-6.122h275.636c3.936 0 7.145 2.735 7.145 6.122V359.91c0 3.389 3.201 6.122 7.143 6.122h13.486c3.936 0 7.145-2.733 7.145-6.122V178.561c0-3.387-3.204-6.122-7.145-6.122z" fill="url(#P)"/><path d="M224.998 27.051H70.488c-1.456 0-2.897.277-4.242.815a11.12 11.12 0 0 0-3.596 2.32 10.68 10.68 0 0 0-2.403 3.472c-.557 1.298-.843 2.69-.843 4.095v93.233c0 1.406.286 2.797.843 4.095a10.68 10.68 0 0 0 2.403 3.472 11.12 11.12 0 0 0 3.596 2.32 11.45 11.45 0 0 0 4.242.814h154.51a11.45 11.45 0 0 0 4.243-.814c1.345-.538 2.567-1.326 3.596-2.32s1.846-2.173 2.403-3.472.843-2.689.843-4.095V37.752c0-2.838-1.168-5.559-3.247-7.565s-4.898-3.134-7.838-3.134" fill="url(#Q)"/><path d="M210.218 42.387H87.792c-2.499 0-4.895.958-6.663 2.664s-2.76 4.019-2.76 6.431v70.459c0 2.412.993 4.725 2.76 6.431s4.164 2.663 6.663 2.663h122.426a9.72 9.72 0 0 0 3.606-.691c1.143-.457 2.182-1.127 3.057-1.972s1.57-1.847 2.043-2.95a8.82 8.82 0 0 0 .718-3.481V51.481c0-2.412-.993-4.725-2.76-6.431s-4.164-2.664-6.662-2.664h-.002z" fill="#acacac"/><path d="M53.921 172.202h-21.06a2.39 2.39 0 0 1-1.592-.598c-.434-.385-.701-.915-.747-1.482l-5.173-44.58h35.162l-4.249 44.52c-.045.573-.31 1.11-.743 1.506a2.45 2.45 0 0 1-1.598.634h0z" fill="url(#R)"/><path d="M60.204 121.678h-35.05c-1.012 0-1.983.389-2.699 1.08a3.62 3.62 0 0 0-1.118 2.605v.101c0 .977.402 1.915 1.118 2.606a3.89 3.89 0 0 0 2.7 1.079h35.05a3.94 3.94 0 0 0 1.461-.28 3.85 3.85 0 0 0 1.239-.799 3.68 3.68 0 0 0 .828-1.196 3.57 3.57 0 0 0 .291-1.41v-.101a3.57 3.57 0 0 0-.291-1.41 3.67 3.67 0 0 0-.828-1.196 3.83 3.83 0 0 0-1.239-.799 3.94 3.94 0 0 0-1.461-.28h-.002z" class="F"/><path d="M56.262 159.244H30.771a3.59 3.59 0 0 1-2.324-.818c-.646-.536-1.068-1.281-1.187-2.095l-1.355-9.984a3.22 3.22 0 0 1 .108-1.419 3.3 3.3 0 0 1 .712-1.246c.328-.361.732-.649 1.186-.845s.946-.294 1.443-.29h28.139c.494-.003.984.095 1.436.288.681.29 1.249.781 1.622 1.402a3.29 3.29 0 0 1 .453 2.055l-1.293 9.985a3.29 3.29 0 0 1-1.132 2.127 3.52 3.52 0 0 1-2.317.845v-.005z" fill="#f8951d"/><path d="M270.507 77.574s-17.489 6.717-23.401-5.23-21.307-8.023-12.933-22.764 28.636-9.333 28.636-9.333l7.698 37.327z" fill="#555"/><path d="M324.945 70.799l-5.788 8.798c-6.159 9.509-20.632 18.129-30.739 11.94-9.427-5.719-17.674-13.075-24.323-21.696-9.298-12.121-17.858-25.083-13.364-31.918l5.728-8.798c6.219-9.51 19.461-12.244 29.497-6.122l38.986 17.534c10.1 6.182 6.219 20.745 0 30.255" class="B"/><path d="M280.976.184c-4.742.476-5.788 2.021-7.82 4.704-.553.709-1.369 1.185-2.276 1.329s-1.838-.056-2.597-.557c-4.064-2.497-10.347-1.784-15.027.119-3.387 1.426-5.602 5.766-6.836 9.094a4.67 4.67 0 0 1-1.962 2.387c-.914.559-1.997.805-3.074.696-6.712-.593-2.217 9.749-11.33 13.552-3.337 1.452-6.124 3.867-7.978 6.913a16.58 16.58 0 0 0-2.369 10.092c.801 9.035 5.419 14.979 12.009 8.203 2.279-2.318-.375 6.657 4.311 8.618 6.281 2.616 7.389-1.961 11.085-7.014l6.157 1.664c5.666-.593 6.159-2.497 9.239-7.191s6.095-17.237 11.146-20.262c2.379-1.429 4.814-1.339 7.234-1.25 2.712.101 5.405.201 7.979-1.842 8.558-6.715 24.445 6.182 29.867 8.141s-4.873-23.122-13.981-30.968c-2.731-2.287-5.548-1.775-7.823-1.266-1.987.445-3.561.892-4.311-.521C290.398.54 283.317-.113 280.976.184z" fill="url(#S)"/><path d="M299.143 33.352s-8.56-7.193-.309-9.926c5.726-1.843 8.435 4.874 10.346 6.062 8.129 5.29 2.034 8.738 2.034 8.738l-12.071-4.874" class="B"/><g fill="#a04a5e"><path d="M276.732 66.851c-1.07-.025-2.123-.256-3.098-.68-2.463-1.035-4.011-2.875-3.455-4.109.31-.687 1.209-1.042 2.369-1.042a8.2 8.2 0 0 1 3.099.68c2.466 1.035 4.011 2.873 3.456 4.107-.311.689-1.209 1.044-2.371 1.044zm11.3-20.387a8.22 8.22 0 0 1-3.098-.682c-2.463-1.033-4.011-2.873-3.454-4.107.309-.687 1.208-1.044 2.369-1.044 1.069.024 2.123.256 3.098.682 2.467 1.033 4.011 2.873 3.456 4.107-.311.689-1.209 1.044-2.371 1.044zm5.815 21.482h-.06a6.45 6.45 0 0 1-4.251-1.843 3.63 3.63 0 0 1-.874-1.219c-.201-.46-.302-.955-.296-1.455.06-2.08 1.97-3.799 2.095-3.924a.69.69 0 0 1 .394-.121h.049a.7.7 0 0 1 .42.181.6.6 0 0 1 .144.429c-.01.156-.086.3-.206.403 0 0-1.601 1.485-1.665 3.092a2.38 2.38 0 0 0 .208.971 2.44 2.44 0 0 0 .593.811c.063 0 1.479 1.487 3.389 1.487h.06c1.293 0 2.586-.655 3.748-1.963s2.158-3.09 2.032-4.523c.001-.163.064-.321.178-.441a.69.69 0 0 1 .439-.212.63.63 0 0 1 .235.045.62.62 0 0 1 .2.129c.057.055.102.121.133.193a.56.56 0 0 1 .046.228c.126 2.08-2.093 4.993-2.341 5.29-1.413 1.605-3.015 2.437-4.685 2.437m-27.636-6.727c-.221-.439-.523-.835-.89-1.17 1.226-3.502 3.612-4.284 3.723-4.284a.62.62 0 0 1 .206-.036h.024a.55.55 0 0 1 .221.056c.073.033.137.08.188.139a.49.49 0 0 1 .105.199c.03.073.044.152.041.231a.59.59 0 0 1-.2.42.62.62 0 0 1-.211.121c-.06 0-2.296.794-3.201 4.324"/><path d="M275.728 44.408c-.123 0-.243-.039-.34-.112a.52.52 0 0 1-.2-.304c-.06-.06-.739-2.377 1.908-6.122 1.687-2.388 4.23-2.842 5.913-2.842.579-.004 1.156.052 1.723.167a.63.63 0 0 1 .375.273.57.57 0 0 1-.003.584.6.6 0 0 1-.223.213.62.62 0 0 1-.303.077.64.64 0 0 1-.144-.016c-.431-.093-.871-.136-1.312-.129-1.376 0-3.522.375-4.967 2.386-2.216 3.092-1.785 5.053-1.785 5.112a.58.58 0 0 1-.067.44.61.61 0 0 1-.364.273h-.2m32.184-11.233h-.34c-.139-.085-.241-.218-.286-.371a.65.65 0 0 1 .039-.461c.084-.08.084-.257 0-.543a2.57 2.57 0 0 0-.491-1.011c-2.862-3.598-3.983-4.523-4.804-4.523-.347 0-.637.163-.984.362a.56.56 0 0 0-.225.195.51.51 0 0 0-.084.28c-.188.773.493 2.081.749 2.437.044.067.074.141.088.219a.62.62 0 0 1 0 .235c-.016.077-.048.151-.095.215a.65.65 0 0 1-.176.163.61.61 0 0 1-.225.087c-.037.007-.075.01-.113.009a.6.6 0 0 1-.129-.013.61.61 0 0 1-.225-.093.63.63 0 0 1-.171-.17c-.121-.181-1.231-1.961-.922-3.387a1.77 1.77 0 0 1 .327-.691 1.83 1.83 0 0 1 .595-.497c.585-.342 1.104-.552 1.644-.552 1.337 0 2.812 1.283 5.749 5.009.342.423.592.907.736 1.426.127.476.084.978-.121 1.427a.72.72 0 0 1-.248.181.7.7 0 0 1-.275.056"/></g><path d="M255.049 398.725l66.633 2.138c9.977-2.793 3.447-8.202 12.183-8.202 5.173 0 5.235 1.011 8.247 3.864s3.513 4.041 7.331 4.099l11.701.239c4.988.181 5.419-3.862 4.557-9.688-2.22-14.86-15.212-32.037-15.212-32.037H300.56c-16.998 2.26-37.074 19.853-48.035 30.612-3.018 3.03-1.355 8.853 2.524 8.975z" class="E"/><g class="F"><path d="M289.166 383.863c-.128.003-.253-.03-.362-.094s-.197-.157-.253-.268c-2.219-5.825-5.235-9.452-8.867-10.701-2.396-.748-4.998-.578-7.267.476a.56.56 0 0 1-.212.086c-.076.014-.154.013-.23-.004a.57.57 0 0 1-.208-.095c-.062-.045-.113-.102-.15-.168-.077-.137-.1-.297-.066-.449a.65.65 0 0 1 .253-.383c2.582-1.252 5.572-1.466 8.317-.595 4.001 1.427 7.264 5.232 9.606 11.412a.54.54 0 0 1 .039.222.53.53 0 0 1-.058.216c-.035.067-.084.126-.145.173s-.13.083-.206.101l-.187.06-.004.011zm8.073-6.419a.79.79 0 0 1-.323-.12c-.097-.063-.179-.145-.239-.242-4.004-8.023-9.548-11.174-16.318-9.331-.495.118-.802.181-1.05 0-.079-.053-.144-.125-.187-.208a.52.52 0 0 1-.058-.268c.003-.158.07-.31.187-.421a.63.63 0 0 1 .437-.181h.307c9.299-2.555 14.839 3.98 17.806 9.926.044.071.071.149.081.23s.005.162-.019.239a.6.6 0 0 1-.114.213c-.051.062-.115.113-.188.151l-.322.012z"/></g><path d="M271.186 133.744s-61.152 40.182-20.2-24.965c5.419-8.684 9.791-20.566 16.996-23.301l-18.475-16.405s-116.272 144.143 28.267 93.975c-2.86-4.34-5.136-9.014-6.776-13.908-1.537-4.993-2.523-10.283.188-15.396z" class="B"/><path d="M456.486 259.994c-3.079 1.84-20.507 3.864-24.08 4.342-6.249.857-15.193.707-24.793.559-21.709-.338-46.782-.677-51.691 10.614-8.247 18.843 15.211 84.582-4.25 89.755-20.444 5.409-69.278 7.779-67.863-8.322 2.032-23.775 16.935-124.285 26.787-131.536 12.627-9.214 30.424-11.412 49.699-11.294l8.682.181c39.414 1.427 82.283 9.452 97.484-14.622 2.036-3.149 6.036 18.842 6.036 19.081 0 38.279-10.53 37.92-16.011 41.247" fill="#323fd4"/><path d="M466.094 193.184c-10.347-17.119-24.327-39.409-78.642-116.799-5.79-8.202-24.51-7.96-33.44-2.913l-.187.181-11.267 8.559a1.57 1.57 0 0 0-.436.5 1.5 1.5 0 0 0-.182.629c-.188 4.523-2.279 28.946-25.555 16.168a1.67 1.67 0 0 0-.84-.195c-.293.011-.578.099-.822.255l-48.651 31.442c-1.353.892-1.846 2.674-1.786 4.874.247 7.25 5.975 25.499 11.642 27.52s25.8-14.325 33.13-20.443c.341-.287.741-.5 1.174-.624s.886-.162 1.334-.105.877.202 1.262.43.716.531.97.892l45.449 65.205c.86 1.241 2.148 2.147 3.635 2.557 12.314 3.149 70.017 16.462 100.871-6.182 1.846-1.362 3.107-3.334 3.539-5.537s.005-4.484-1.198-6.403" fill="url(#T)"/><path d="M342.129 82.746c-5.771-4.82-10.627-10.575-14.35-17.006l-11.823 16.94s11.331 10.343-.74 16.703c0 0 26.913 16.825 26.913-16.644v.006z" class="B"/><path d="M306.704 74.127c-.126.001-.248-.04-.347-.115s-.167-.182-.194-.301c-.801-2.26 1.479-10.996 6.899-14.8a.54.54 0 0 1 .201-.098c.046-.011.093-.017.14-.018a.67.67 0 0 1 .085 0c.075.011.147.037.211.076.106.06.192.148.247.253s.077.224.065.342a.58.58 0 0 1-.092.224.55.55 0 0 1-.188.165c-5.109 3.618-6.957 12.005-6.404 13.492.03.074.044.153.041.232a.61.61 0 0 1-.054.23c-.037.068-.086.129-.145.181s-.134.094-.212.121h-.258" fill="#a04a5e"/><path d="M265.951 85.48s18.906.892 13.733-9.094-13.242-10.936-13.242-14.145-7.512-6.361-11.33-2.26c-2.385 2.706-4.279 5.78-5.605 9.094l16.444 16.405" class="B"/><path d="M278.361 84.233c-.087 0-.174-.02-.251-.058a.56.56 0 0 1-.214-.181.65.65 0 0 1-.096-.438c1.078-.581 1.938-1.331 2.401-2.301 1.125-1.266 1.635-2.549 1.513-3.853-.289-2.958-3.749-5.342-5.81-6.478-4.596-5.056-9.46-6.187-9.46-8.684v-.083a234.67 234.67 0 0 1 8.314 6.799l.375.239c1.723.772 7.389 3.799 7.82 8.083.247 2.377-1.171 4.704-4.187 6.837-.064.118-.188.118-.375.118h-.03" class="D"/><path d="M251.989 64.175a.52.52 0 0 1-.15-.127c-.053-.063-.093-.136-.116-.214s-.03-.159-.019-.24a.58.58 0 0 1 .082-.227c.664-1.181 1.588-2.518 2.757-3.559l.938-.181-.36.362c-1.158 1.314-2.202 2.717-3.123 4.195" class="G"/><path d="M258.628 58.129l.122-.107h.009a5.41 5.41 0 0 1 .54.027l-.671.08" class="D"/><path d="M254.544 59.81c.89-.792 1.923-1.415 3.092-1.672a5.36 5.36 0 0 1 1.108-.116l-.122.107c-1.18.186-2.277.706-3.151 1.494l-.937.181" class="G"/><path d="M277.802 83.551a.64.64 0 0 1 .219-.389c.798-.559 1.529-1.2 2.182-1.912-.463.97-1.323 1.721-2.401 2.301m-1.901-12.633c-.431-.242-.875-.46-1.33-.655l-.615-.416c-1.232-1.069-7.636-6.419-11.823-9.391-1.148-.829-2.25-1.23-3.327-1.23-.311 0-.62.034-.923.101-1.355.297-4.003 2.793-5.06 4.637-.078.129-.203.226-.351.27a.62.62 0 0 1-.187.027.63.63 0 0 1-.268-.06l-.043-.025a31.69 31.69 0 0 1 3.122-4.195 9.24 9.24 0 0 1 .36-.362c.874-.788 1.97-1.309 3.151-1.494a6.92 6.92 0 0 1 .671-.08c1.177.114 2.363.606 3.578 1.447 1.089.764 2.32 1.684 3.561 2.652v.083c0 2.491 4.874 3.618 9.46 8.684" class="D"/><path d="M316.447 83.16s11.271-14.683 11.332-17.416l.984 1.664a35.09 35.09 0 0 1-2.586 8.975c-1.723 3.924-4.742 7.779-6.648 10.639 0 0-1.419-1.961-3.082-3.862z" class="H"/><g class="B"><path d="M335.168 211.847c3.019 10.105-2.772 17.653-6.281 23.777-4.686 8.26-5.852 8.381-8.315 10.163-11.699 8.322-6.342 14.325-13.978 15.157-2.463.298-3.509-3.566-3.571-6.299a1.25 1.25 0 0 0-.219-.67c-.134-.199-.322-.36-.543-.463a1.4 1.4 0 0 0-.713-.127 1.42 1.42 0 0 0-.682.246l-3.078 2.202c-3.749 2.734-4.311 9.331-4.311 12.845a10.77 10.77 0 0 1-2.032 6.417c-3.203 4.401-5.357-.891-6.035-3.09-.024-.084-.067-.162-.128-.227a.55.55 0 0 0-.223-.142c-.085-.029-.175-.037-.265-.024a.56.56 0 0 0-.246.096c-3.749 2.676-4.988-3.568-5.235-5.588a.86.86 0 0 0-.255-.467c-.132-.127-.301-.212-.484-.246-4.556-.832-2.155-12.421-2.155-12.421 1.786-13.375 4.618-17.534 18.042-22.886 4.93-1.961 7.267-7.779 14.228-11.053l26.479-7.195"/><path d="M289.042 277.114h-.307c-1.846-.299-3.078-3.213-3.573-4.936l-.187-.238h-.247c-.984.723-1.907.893-2.709.595-2.032-.832-2.832-4.755-3.017-6.421a.73.73 0 0 0-.171-.251c-.074-.072-.163-.128-.261-.165-4.803-.89-2.584-12.302-2.462-12.779 1.848-13.73 5.111-17.831 18.227-23.121 2.28-.891 3.937-2.616 5.912-4.578s4.557-4.704 8.313-6.477l.309.543c-3.694 1.726-6.097 4.161-8.191 6.359s-3.748 3.799-6.095 4.703c-12.993 5.232-16.013 9.046-17.859 22.708-.063.118-2.279 11.293 1.906 12.065a1.12 1.12 0 0 1 .632.322c.168.172.271.393.294.628.188 1.19.924 5.172 2.709 5.885.616.298 1.293.121 2.093-.474.109-.085.238-.142.375-.165.143-.015.288.001.423.047s.258.122.359.221a.77.77 0 0 1 .187.362c.43 1.248 1.539 4.28 3.076 4.523s1.541-.362 2.403-1.547c1.311-1.833 1.999-4.013 1.97-6.24 0-3.687.562-10.285 4.435-13.078l3.079-2.198c.245-.175.534-.284.837-.315a1.77 1.77 0 0 1 .887.134c.275.114.509.303.673.543a1.41 1.41 0 0 1 .25.818c.063 2.078.678 4.636 1.91 5.646a1.52 1.52 0 0 0 .596.362c.224.072.464.09.697.052 3.511-.362 4.123-1.84 5.111-4.342s2.651-6.418 8.748-10.757l.86-.654c1.91-1.31 3.325-2.26 7.39-9.392l1.418-2.438c3.325-5.527 7.388-12.42 4.803-21.167l.615-.117c2.649 8.915-1.54 15.92-4.873 21.575l-1.417 2.377c-4.124 7.311-5.602 8.322-7.574 9.63l-.861.655c-5.975 4.221-7.454 7.844-8.498 10.52s-1.788 4.28-5.668 4.704a2.3 2.3 0 0 1-.955-.081c-.309-.094-.592-.251-.831-.462-1.415-1.189-2.032-4.042-2.092-6.061a.91.91 0 0 0-.167-.542.95.95 0 0 0-.451-.362.95.95 0 0 0-.542-.1c-.186.022-.361.098-.502.217l-3.082 2.202c-3.632 2.672-4.185 9.033-4.185 12.6a10.87 10.87 0 0 1-2.094 6.598c-.864 1.189-1.788 1.844-2.65 1.844"/></g><g class="D"><path d="M279.684 266.422h-.064l-.06-.362c-.024-.235-.128-.455-.294-.628-.042-.043-.089-.083-.139-.119l2.28-14.587c.924-6.48 8.929-9.512 9.298-9.63a.72.72 0 0 1 .221-.038h.021c.124.003.244.042.345.113a.59.59 0 0 1 .217.282.52.52 0 0 1 .04.22.5.5 0 0 1-.058.217.52.52 0 0 1-.145.181.66.66 0 0 1-.206.102c-.06.059-7.758 2.853-8.558 8.683s-2.281 14.981-2.341 15.099c-.025.126-.09.241-.188.327a.61.61 0 0 1-.358.149"/><path d="M279.62 266.422h-.06a.61.61 0 0 1-.23-.089c-.107-.067-.19-.163-.239-.276a.59.59 0 0 1-.033-.359l.062-.391a1.06 1.06 0 0 1 .139.12 1.07 1.07 0 0 1 .294.628l.06.361m6.243 5.916l-.137-.392c-.028-.135-.093-.26-.187-.362s-.223-.182-.364-.223l-.035-.013c.155-2.114 1.003-12.77 1.945-18.293 1.048-6.124 12.502-10.522 13.496-10.701.043-.009.088-.014.133-.014.037 0 .075.003.112.01.081.016.158.046.227.089a.71.71 0 0 1 .176.17c.065.096.098.209.094.324a.55.55 0 0 1-.116.317.63.63 0 0 1-.375.233c-.984.239-11.516 4.043-12.502 9.749s-1.972 18.486-1.972 18.605a.63.63 0 0 1-.21.362.66.66 0 0 1-.266.143"/><path d="M285.639 272.355c-.079.001-.156-.016-.227-.048a.56.56 0 0 1-.199-.147.48.48 0 0 1-.108-.215c-.019-.08-.019-.163 0-.243 0-.01 0-.139.026-.361l.035.012c.141.041.266.118.364.223a.77.77 0 0 1 .187.362l.137.392a.69.69 0 0 1-.137.024h-.08"/></g><path d="M302.69 254.417l-.017-.017c0-.027 0-.054-.013-.081l.03.098m-.077-.203c-.029-.047-.06-.092-.094-.136v-.012l.03.041.064.107z" fill="#6789b5"/><g class="D"><path d="M303.329 254.565c-.001-.284-.087-.561-.25-.798-.141-.209-.334-.38-.562-.497.126-1.247.87-3.736 4.442-7.186a12.18 12.18 0 0 0 3.166-4.924c.632-1.862.792-3.843.467-5.777a.58.58 0 0 1 0-.235.63.63 0 0 1 .092-.221c.046-.066.105-.123.174-.168a.65.65 0 0 1 .23-.087h.09c.134 0 .264.039.375.11a.64.64 0 0 1 .274.371c.349 2.126.169 4.302-.527 6.347s-1.886 3.9-3.473 5.412c-4.558 4.398-4.063 6.955-4.063 6.955.018.156-.021.314-.109.446a.68.68 0 0 1-.326.248"/><path d="M303.121 254.585a.64.64 0 0 1-.357-.107c-.026-.019-.051-.039-.075-.062-.008-.033-.018-.065-.03-.097v-.033l-.041-.072-.064-.107-.029-.041a3.78 3.78 0 0 1 0-.796c.227.117.421.288.562.497.162.237.249.514.249.798l-.06.02h-.148"/></g><path d="M361.403 113.358c-.677 8.736 4.498 67.403-54.376 106.157a.86.86 0 0 0-.477.395c-.098.184-.124.397-.071.599a.84.84 0 0 0 .367.487c.181.114.399.158.612.124l25.554 7.43c.124 0 5.85-8.322 11.211-10.106 2.031-.712 14.839-8.864 26.848-25.616 3.325-4.637 6.035-10.462 8.809-16.644 6.712-15.216 11.392-34.713 9.977-59.38a.96.96 0 0 0-.276-.508c-.142-.138-.326-.23-.524-.265l-26.666-3.446c-.236-.018-.47.051-.654.195s-.303.351-.332.578" class="B"/><g class="G"><path d="M33.661 117.399h-.187c-.375-.119-8.682-3.032-10.037-8.025-.493-2.021.124-4.042 1.97-6.003 3.265-3.567 7.145-4.577 9.732-5.172 1.415-.362 2.646-.653 2.832-1.189s-.431-1.901-1.972-3.862c-2.401-3.032-5.295-5.35-7.574-7.253s-4.618-3.685-4.311-5.29 1.232-1.784 3.387-2.556 9.732-3.269 10.161-6.122c.124-1.01-.615-2.081-2.154-3.209a.56.56 0 0 1-.181-.164c-.047-.067-.078-.143-.09-.223s-.004-.162.021-.239a.53.53 0 0 1 .128-.206.68.68 0 0 1 .408-.211c.157-.021.318.011.454.092 1.97 1.427 2.832 2.853 2.648 4.342-.431 2.437-3.818 4.637-11.025 7.074-1.97.713-2.525 1.306-2.585 1.664s1.723 2.377 3.936 4.161 5.297 4.28 7.76 7.43 2.538 3.861 2.163 4.93-1.786 1.487-3.694 1.963-6.097 1.485-9.115 4.814c-1.539 1.664-2.094 3.329-1.662 4.933 1.17 4.342 9.115 7.133 9.175 7.193a.52.52 0 0 1 .229.105.54.54 0 0 1 .156.192.52.52 0 0 1-.013.476.54.54 0 0 1-.219.271.58.58 0 0 1-.344.09l.006-.005zm16.444 2.258h-.247c-.307-.118-8.622-2.971-9.977-7.96-.491-2.021.124-4.043 1.91-6.005 3.325-3.618 7.205-4.577 9.792-5.23 1.417-.296 2.648-.653 2.832-1.188s-.431-1.843-1.97-3.799c-2.401-3.032-5.297-5.349-7.574-7.251s-4.62-3.685-4.373-5.29 1.293-1.784 3.387-2.556 9.73-3.329 10.223-6.122c.124-1.011-.617-2.081-2.155-3.211a.54.54 0 0 1-.182-.163.51.51 0 0 1-.088-.224.51.51 0 0 1 .021-.239.53.53 0 0 1 .126-.206.58.58 0 0 1 .163-.15.55.55 0 0 1 .212-.076.59.59 0 0 1 .225.011.57.57 0 0 1 .202.098c2.032 1.425 2.894 2.853 2.647 4.342-.375 2.437-3.749 4.637-10.961 7.074-2.032.713-2.525 1.248-2.587 1.664s1.724 2.377 3.88 4.161c2.907 2.164 5.533 4.659 7.822 7.43 1.908 2.437 2.525 3.862 2.154 4.933s-1.784 1.485-3.694 1.961-6.157 1.485-9.175 4.814c-1.479 1.664-2.034 3.329-1.601 4.933 1.17 4.342 9.113 7.134 9.175 7.193.075.02.145.055.206.102a.57.57 0 0 1 .144.181.54.54 0 0 1 .058.215.56.56 0 0 1-.039.221c-.04.109-.115.203-.215.268s-.218.098-.338.093v-.023z"/></g><path d="M350.755 214.264l.056-.04 2.465-.047-2.521.087z" fill="#d3dff2"/><path d="M296.302 273.901l.288-1.384-.268 1.382h-.02m3.54-17.029l.341-1.628a3.89 3.89 0 0 1 .188-.831l.054-.079-.579 2.545m63.632-42.695l-1.085-.021h1.074l.011.014m-7.162-.054l.527-.011h.29l-.817.009" fill="#4c7ec0"/><path d="M364.411 214.19l-.937-.018-.011-.015 1.012.009-.071.024" fill="#e41d34"/><path d="M296.33 273.899l.268-1.382 3.252-15.646.579-2.545c.003-.007.008-.013.013-.018l.611-.438c.141-.119.316-.195.503-.217h.106c.152 0 .302.036.435.105a.95.95 0 0 1 .188.096 1.34 1.34 0 0 1 .234.23v.09c.029.087.079.166.144.232.046.299.061.602.043.904l.074.375c.206 1.867.832 4.036 2.018 5.033a2.25 2.25 0 0 0 1.404.553 1.89 1.89 0 0 0 .225.015c.115-.001.23-.011.343-.031a6.66 6.66 0 0 0 .819-.148c2.493-.476 3.402-1.616 4.178-3.367.305-.617.563-1.254.772-1.907 1.052-2.591 2.761-5.945 8.212-9.794l.86-.655c1.972-1.308 3.449-2.32 7.574-9.63l1.417-2.377c.806-1.368 1.663-2.817 2.459-4.355.699-1.201 1.217-2.06 1.423-2.303a47.69 47.69 0 0 1 6.954-6.831 11.55 11.55 0 0 1 2.776-1.431 7.11 7.11 0 0 0 .995-.478l.174-.056a11.82 11.82 0 0 0 2.154-1.367l.669-.474 1.023-.724 1.517-1.085 2.521-.087 3.044-.06.817-.009 5.259.042 1.085.021.937.018c-1.267.458-19.395 7.101-26.285 16.679-3.633 5.052-16.565 19.436-19.954 26.392s-19.306 16.355-21.842 16.644" fill="#2836d7"/><path d="M306.211 261.259c-.521-.019-1.018-.215-1.403-.554-1.187-.997-1.813-3.166-2.019-5.033.268 1.266 1.289 5.317 3.422 5.587m1.387-.165c1.29-.315 2.446-1.011 3.307-1.99a8.53 8.53 0 0 0 .871-1.373c-.776 1.751-1.687 2.894-4.178 3.367m4.951-5.274c.487-1.425.899-2.817 2.236-4.208.999-1.405 2.179-2.682 3.512-3.799l6.71-5.586 3.573-5.469 4.498-7.743-2.459 4.354-1.417 2.377c-4.124 7.311-5.602 8.322-7.574 9.63l-.861.655c-5.45 3.85-7.159 7.204-8.211 9.794m-12.106-1.512c.279-.376.694-.638 1.164-.734.222.026.433.105.616.229l.062.046c-.058-.039-.121-.071-.187-.096a.95.95 0 0 0-.435-.105h-.107c-.186.022-.361.098-.502.217l-.611.438" fill="#daaea1"/><path d="M302.675 254.4c-.066-.065-.115-.145-.145-.231v-.091c.034.044.066.089.094.136a.82.82 0 0 1 .047.105c0 .027 0 .054.013.081" fill="#5d87be"/><path d="M302.66 254.319a.82.82 0 0 0-.047-.105c.015.023.028.049.041.072v.033" fill="#b28390"/><path d="M341.447 219.875a13.53 13.53 0 0 1 3.768-1.905c-.319.185-.652.344-.996.478a11.59 11.59 0 0 0-2.776 1.431m6.769-3.799l1.023-.724-1.023.724z" fill="#daaea1"/><g fill="#fff"><path d="M124.002 65.925c-.866 0-1.723.164-2.522.483a6.6 6.6 0 0 0-2.138 1.378c-.612.591-1.097 1.292-1.428 2.064a6.17 6.17 0 0 0-.501 2.434v28.764c0 1.693.692 3.316 1.926 4.518s2.91 1.885 4.663 1.901h50.067c1.751-.017 3.425-.699 4.659-1.9s1.925-2.822 1.927-4.513V72.289a6.17 6.17 0 0 0-.501-2.434 6.36 6.36 0 0 0-1.429-2.063c-.612-.591-1.339-1.059-2.138-1.378s-1.657-.484-2.522-.483l-50.063-.005zm50.067 42.743h-50.067c-2.083-.012-4.075-.82-5.541-2.247s-2.287-3.357-2.283-5.367V72.289a7.32 7.32 0 0 1 .595-2.888c.393-.916.969-1.748 1.696-2.449s1.588-1.257 2.536-1.636a8.07 8.07 0 0 1 2.993-.575h50.071c2.074.001 4.063.796 5.529 2.211s2.291 3.335 2.292 5.337v28.765c.005 2.009-.816 3.939-2.281 5.366s-3.458 2.235-5.54 2.248h0z"/><path d="M149.744 92.025c-1.524-.009-2.992-.559-4.124-1.545L119.138 67.35c-.122-.11-.195-.263-.201-.424s.055-.319.169-.437.273-.188.441-.194.33.053.453.163l26.428 23.122c.916.794 2.106 1.229 3.337 1.218a5.02 5.02 0 0 0 3.313-1.277l25.609-23.004a.7.7 0 0 1 .443-.119c.157.011.305.074.42.179a.54.54 0 0 1 .176.431.52.52 0 0 1-.071.226.53.53 0 0 1-.167.181l-25.619 22.999c-1.109 1.027-2.586 1.602-4.123 1.605l-.002.007z"/><path d="M119.322 106.344c-.125-.007-.245-.05-.344-.124s-.172-.177-.209-.292a.57.57 0 0 1-.013-.405.6.6 0 0 1 .259-.319c.862-.653 13.178-12.421 21.307-20.262a.76.76 0 0 1 .431-.134c.155 0 .306.047.431.134a.64.64 0 0 1 .182.445.64.64 0 0 1-.182.445l-21.677 20.508-.185.004zm59.797-.12c-.082.007-.163-.005-.239-.036a.45.45 0 0 1-.187-.143l-20.574-20.209c-.115-.11-.179-.26-.179-.416s.064-.306.179-.416a.62.62 0 0 1 .431-.172c.161 0 .316.062.431.172l20.569 20.209c.116.121.181.281.181.446s-.065.325-.181.446a.63.63 0 0 1-.431.119h0z"/></g><path d="M187.934 50h-22.868c-1.059 0-2.109.257-3.087.758s-1.868 1.233-2.617 2.158-1.343 2.021-1.749 3.229a12.01 12.01 0 0 0-.613 3.808v11.099c0 2.639.85 5.169 2.362 7.035S162.927 81 165.066 81h22.868c2.139 0 4.191-1.048 5.704-2.914S196 73.69 196 71.051V59.964c.002-1.308-.206-2.603-.611-3.812s-.998-2.307-1.747-3.233-1.639-1.66-2.619-2.16-2.029-.759-3.089-.759z" fill="#ee2627"/><path d="M176 57.731c-3.277 0-6.073 3.29-6.073 7.27s2.796 7.269 6.073 7.269 6.073-3.287 6.073-7.269-2.699-7.27-6.073-7.27zM176 74c-4.336 0-8-4.067-8-9s3.664-9 8-9 8 4.069 8 9-3.564 9-8 9z" fill="#fff"/><path d="M265.027 141.232s4.002 19.853 11.392 22.29l-5.295 1.724s-6.466-10.759-6.097-24.014z" class="H"/><path d="M361.772 114.783a82.14 82.14 0 0 0 26.357 4.161 3.98 3.98 0 0 0 1.502-.344 3.88 3.88 0 0 0 1.245-.881c.349-.371.618-.806.79-1.279a3.64 3.64 0 0 0 .212-1.476l-.862-10.639-32.025-2.556v9.211c-.009.834.255 1.649.752 2.331s1.204 1.195 2.02 1.469" fill="#8354a2"/><path d="M361.341 114.604a64.29 64.29 0 0 0 7.145 2.14c2.523.595 5.479 1.071 8.622 1.547 2.163.298 4.342.476 6.527.534a35.38 35.38 0 0 0 4.991.059 10.97 10.97 0 0 0 1.291-.416l.124 3.092s-19.768 0-28.698-5.29v-1.666" class="H"/><path d="M324.454 205.786s6.219 12.897 16.997 14.086l-5.061 4.703s-15.396-2.319-16.749-14.682l4.804-4.1.009-.007z" class="E"/><path d="M359.416 208.987c-.144-.183-.279-.373-.403-.569l.234.339.169.23" fill="#b48fc2"/><path d="M368.411 212.641c-1.001-.15-1.233-.234-2.944-.675l-.827-.212 3.771.887" fill="#bc1e51"/><path d="M368.782 212.692c-.038.002-.076.002-.114 0l-.257-.038-3.771-.887c-1.479-.38-2.72-.723-3.608-1.266a7.1 7.1 0 0 1-1.616-1.495l-.168-.229-.235-.339-.013-.019-.562-.831c5.291-5.109 9.167-9.745 12.264-14.241l.36-.499a58.99 58.99 0 0 0 4.123-6.815c1.048-1.912 2.015-3.834 2.954-5.789.562-1.184 1.089-2.481 1.618-3.799l.106-.239a123.45 123.45 0 0 0 1.789-4.284 27.82 27.82 0 0 1 .674-1.362c.81-1.513 1.29-3.664 1.935-5.971 1.049-3.29 1.988-6.742 2.791-10.362.94-4.165 1.664-8.368 2.17-12.609l.242-2.714c.641-6.788.795-13.61.461-20.418.35-.191.666-.435.937-.723a3.72 3.72 0 0 0 .793-1.281c.172-.474.245-.977.212-1.478l-.862-10.639-.437-.037c-.596-7.202-1.721-14.349-1.721-14.349.025-.754.148-1.062.332-1.062.787 0 2.688 5.579 2.688 5.579 3.936 10.046 3.201 40.479-.801 62.828-3.945 22.093-18.291 55.368-22.284 55.368z" fill="#75429a"/><path d="M370.713 193.334l4.498-7.314a58.85 58.85 0 0 1-4.123 6.815l-.375.499zm9.06-16.904l1.895-4.523-1.788 4.284-.107.239zm4.499-11.86l.283-.979 2.508-9.384c-.803 3.618-1.742 7.072-2.791 10.363m5.203-25.69a171.45 171.45 0 0 0 .527-17.309h.033l-.123-3.092.02-.011c.334 6.808.18 13.63-.461 20.418" fill="#b76e97"/><path d="M389.919 118.463c1.312-1.791 1.181-8.004.669-14.176l.437.036.862 10.639c.033.502-.039 1.004-.212 1.478s-.442.91-.793 1.281c-.27.288-.587.532-.937.724l-.02.011" fill="#75429a"/><path d="M390.039 121.56h-.034l-.089-3.092.123 3.092z" fill="#b15e83"/><path d="M334.776 212.467l-4.123-4.416a2.84 2.84 0 0 0-.885-.639c-.336-.154-.7-.244-1.071-.263a2.92 2.92 0 0 0-1.094.153c-.351.12-.673.305-.95.545l-7.428 6.455c-.558.485-.894 1.165-.933 1.889s.222 1.434.725 1.973l4.123 4.418c.249.267.55.484.886.638a2.91 2.91 0 0 0 1.071.263c.371.019.743-.033 1.094-.153s.673-.305.949-.546l7.428-6.456a2.75 2.75 0 0 0 .663-.854c.16-.324.253-.676.272-1.034a2.64 2.64 0 0 0-.158-1.056 2.72 2.72 0 0 0-.565-.917h-.004z" fill="url(#U)"/><g fill="#ba79b3"><path d="M281.899 156.154a.7.7 0 0 1-.419-.19.64.64 0 0 1-.188-.406c0-.059-.375-6.002-.309-12.007.062-11.174 1.419-12.897 2.65-13.135 3.507-.713 16.009 6.836 17.366 7.726.139.087.24.22.287.373a.63.63 0 0 1-.042.459.61.61 0 0 1-.166.181c-.069.045-.146.077-.227.094s-.164.016-.244 0-.157-.045-.225-.088c-5.173-3.21-14.226-8.083-16.505-7.55s-2.094 12.664-1.354 23.895a.61.61 0 0 1-.022.233.63.63 0 0 1-.114.207c-.053.06-.116.11-.188.148a.63.63 0 0 1-.234.067l-.066-.007zm40.524-26.095c-1.172 0-6.714-.059-12.259-.416-11.514-.653-13.176-2.14-13.362-3.329-.614-3.388 8.006-14.979 8.997-16.281a.51.51 0 0 1 .167-.181.57.57 0 0 1 .232-.087c.083-.011.168-.004.248.02a.57.57 0 0 1 .215.123c.118.103.194.242.216.394s-.011.307-.094.438c-3.572 4.754-9.184 13.195-8.809 15.395s12.995 2.794 24.694 2.674c.159.014.307.082.42.19s.182.252.197.405a.59.59 0 0 1-.188.42.6.6 0 0 1-.199.133c-.075.031-.156.047-.237.048l-.244.06.006-.006zm97.174 9.511c-1.169 0-6.71 0-12.254-.362-11.518-.713-13.24-2.14-13.424-3.329-.562-3.448 8.007-15.037 8.997-16.345a.68.68 0 0 1 .407-.212c.158-.022.318.011.453.092a.53.53 0 0 1 .188.163c.046.068.077.144.091.225a.52.52 0 0 1-.022.238c-.026.077-.07.148-.127.207-3.571 4.814-9.114 13.195-8.744 15.453s12.993 2.735 24.632 2.676a.58.58 0 0 1 .458.152c.059.057.105.127.133.204a.49.49 0 0 1 .024.237c.01.075.003.152-.023.224a.52.52 0 0 1-.116.194.54.54 0 0 1-.187.132c-.072.03-.15.045-.229.045l-.257.006zm2.032 28.708h-.309a.65.65 0 0 1-.287-.362.62.62 0 0 1 .039-.461c3.203-5.051 7.946-13.908 7.389-16.101s-13.177-1.605-24.816-.593c-.159-.009-.31-.066-.432-.164a.71.71 0 0 1-.247-.379.61.61 0 0 1 .023-.232c.024-.075.063-.145.114-.206a.6.6 0 0 1 .187-.148c.072-.037.153-.061.235-.067.06 0 6.279-.543 12.502-.724 11.514-.237 13.362 1.071 13.667 2.26.866 3.329-6.648 15.573-7.51 17.005-.074.067-.161.118-.257.149a.69.69 0 0 1-.3.029l.002-.006zm-2.032 19.198l-.375-.117a.59.59 0 0 1-.206-.404.58.58 0 0 1 .144-.428c0-.06 3.882-4.757 8.008-9.214 7.696-8.322 9.915-8.684 11.021-8.083 3.141 1.664 7.206 15.334 7.701 16.88.039.158.016.324-.063.467a.67.67 0 0 1-.375.306.75.75 0 0 1-.473-.076.74.74 0 0 1-.328-.34c-1.662-5.706-5.047-15.097-7.081-16.226s-10.284 8.141-17.487 17.006c-.055.076-.128.138-.214.18a.58.58 0 0 1-.281.055l.009-.006zm-15.826-7.131l-.375-.12c-.124-.084-.211-.21-.244-.352s-.012-.292.06-.42c3.141-5.111 7.943-13.968 7.389-16.101s-13.179-1.664-24.817-.653c-.081.007-.163 0-.241-.024a.57.57 0 0 1-.21-.108.58.58 0 0 1-.158-.181c-.037-.069-.06-.145-.069-.223a.58.58 0 0 1 .022-.231c.022-.075.064-.145.115-.206a.66.66 0 0 1 .187-.149c.072-.036.151-.059.233-.067.06 0 6.28-.542 12.439-.655 11.578-.296 13.363 1.012 13.672 2.2.862 3.389-6.65 15.633-7.514 17.006-.05.085-.121.156-.207.208s-.185.081-.286.089l.004-.013zm5.913 14.503c-.062 0-6.283 0-12.502-.416-11.516-.832-13.178-2.259-13.362-3.448-.562-3.448 8.127-14.92 9.111-16.226.042-.072.1-.134.171-.181a.55.55 0 0 1 .234-.086c.084-.011.167-.004.247.019a.57.57 0 0 1 .21.123.64.64 0 0 1 .22.395c.023.152-.01.307-.094.438-3.632 4.754-9.239 13.136-8.929 15.334s12.993 2.854 24.694 2.854c.158.011.306.075.42.181.108.111.174.254.187.405a.54.54 0 0 1-.047.228c-.03.073-.076.138-.135.192a.58.58 0 0 1-.196.13.66.66 0 0 1-.237.046l.008.012zm41.076 14.92h-.125c-.06 0-6.158-1.011-12.193-2.439-11.268-2.614-12.624-4.341-12.624-5.528.062-3.438 10.592-13.433 11.762-14.562a.64.64 0 0 1 .414-.117.62.62 0 0 1 .39.181.58.58 0 0 1 .182.377.58.58 0 0 1-.124.399c-4.373 4.161-11.33 11.531-11.392 13.729s12.254 4.885 23.832 6.779c.082.012.16.041.23.085s.128.102.173.17a.52.52 0 0 1 .092.219c.021.107.012.218-.027.321s-.106.193-.194.261a.62.62 0 0 1-.396.132v-.007zm-67.187 5.704a.63.63 0 0 1-.36-.11.61.61 0 0 1-.225-.295c-.04-.118-.041-.245-.002-.364a.6.6 0 0 1 .215-.298c8.317-6.124 8.435-7.669 8.247-8.025-.987-2.021-10.47-6.065-16.196-8.141-.077-.027-.147-.068-.208-.122a.59.59 0 0 1-.142-.19c-.035-.071-.054-.149-.057-.228a.6.6 0 0 1 .038-.233.59.59 0 0 1 .129-.198c.056-.058.124-.103.199-.135.151-.066.322-.073.478-.018 1.601.595 15.396 5.588 16.869 8.798.8 1.604-1.722 4.398-8.622 9.451-.048.045-.105.08-.169.101s-.133.027-.2.016l.006-.009zm35.04 2.023h-.187a.67.67 0 0 1-.212-.123c-.059-.052-.108-.113-.145-.181s-.052-.151-.054-.23a.53.53 0 0 1 .041-.232c2.954-9.154 2.216-10.7 1.785-10.939-1.972-1.127-12.133.893-18.044 2.438-.155.037-.318.014-.456-.063a.59.59 0 0 1-.281-.351c-.032-.077-.043-.161-.034-.244a.52.52 0 0 1 .073-.233c.039-.072.095-.134.163-.181a.7.7 0 0 1 .229-.109c1.601-.414 15.887-3.98 18.966-2.258 1.663.89 1.294 4.456-1.233 12.302a.66.66 0 0 1-.242.301.73.73 0 0 1-.375.117l.006-.014zM357.525 117.28a174.35 174.35 0 0 1-11.396-.892c-10.53-1.248-12.067-2.734-12.183-3.922-.375-3.508 8.809-14.623 9.855-15.871a.68.68 0 0 1 .409-.21.7.7 0 0 1 .453.092c.13.095.216.235.238.391a.59.59 0 0 1-.116.441c-3.818 4.635-9.853 12.778-9.608 15.037 0 .12.495 1.605 11.087 2.853 5.604.653 11.27.892 11.33.892a.64.64 0 0 1 .231.067.6.6 0 0 1 .187.148.54.54 0 0 1 .113.207c.023.075.031.153.022.231.002.076-.014.152-.047.221s-.077.131-.137.181-.124.089-.198.112-.153.031-.231.022h-.009zm32.143-16.465c-.1-.007-.198-.037-.283-.089a.6.6 0 0 1-.208-.208c-6.097-9.629-13.733-19.496-15.334-18.843s-5.297 10.106-6.836 15.752a.55.55 0 0 1-.092.221.6.6 0 0 1-.172.17.64.64 0 0 1-.229.089.63.63 0 0 1-.247 0 .67.67 0 0 1-.369-.306c-.08-.143-.102-.309-.062-.466.431-1.545 4.189-15.216 7.576-16.584 1.11-.476 3.263.181 9.915 9.273 3.634 4.933 6.836 10.044 6.898 10.104a.51.51 0 0 1 .077.215c.01.076.004.153-.019.226a.51.51 0 0 1-.115.197c-.052.057-.116.103-.187.134l-.309.12-.004-.004zm-63.189 42.619h-.062c-.151-.031-.285-.115-.375-.235a.6.6 0 0 1-.115-.42c0-.06.866-6.003 2.158-11.888 2.341-10.878 4.065-12.302 5.357-12.302 3.634 0 14.226 9.808 15.395 10.936a.59.59 0 0 1 .173.192.58.58 0 0 1 .073.243.57.57 0 0 1-.037.249c-.032.08-.079.152-.141.212s-.136.11-.218.141a.64.64 0 0 1-.26.04c-.088-.005-.175-.03-.253-.071s-.145-.098-.199-.166c-4.373-4.101-12.183-10.58-14.533-10.58-1.785 0-4.686 12.007-6.343 23.182a.48.48 0 0 1-.064.201c-.037.061-.083.115-.138.161a.55.55 0 0 1-.188.096c-.068.022-.144.026-.217.018l-.013-.009zm5.248 19.435h-.126c-.153-.042-.283-.139-.364-.271a.59.59 0 0 1-.067-.442c0-.059 1.419-5.885 3.203-11.65 3.327-10.64 5.173-11.94 6.405-11.828 3.572.239 13.308 10.936 14.412 12.184a.6.6 0 0 1 .099.411c-.023.14-.097.268-.208.362a.63.63 0 0 1-.409.144.64.64 0 0 1-.407-.152c-4.001-4.459-11.268-11.591-13.549-11.77h-.06c-1.724 0-5.728 11.651-8.315 22.587-.04.129-.124.24-.24.316-.109.076-.241.113-.374.107v.002z"/></g><g fill="#747373"><path d="M248.769 62.356h-.248c-.115-.008-.227-.044-.324-.107s-.176-.149-.229-.25c-.033-.096-.616-1.447.137-3.416l1.191.322c-.613 1.543-.188 2.556-.158 2.618a.7.7 0 0 1-.03.481.72.72 0 0 1-.339.351"/><path d="M249.296 58.907l-1.191-.322c.628-1.643 2.188-3.719 5.775-5.856 7.872-4.704 9.792-21.934 9.792-22.113a.59.59 0 0 1 .198-.386.63.63 0 0 1 .415-.157h.063a.61.61 0 0 1 .233.067.6.6 0 0 1 .187.148.57.57 0 0 1 .135.438c-.062.715-1.477 17.773-10.346 23.003-3.305 1.948-4.707 3.776-5.261 5.169m-8.981 1.267c-1.118 0-2.21-.334-3.124-.957a4.36 4.36 0 0 1-1.34-1.574c-.311-.62-.464-1.303-.446-1.992-.308-8.441 14.226-17.06 14.841-17.416a.64.64 0 0 1 .226-.089.62.62 0 0 1 .115-.011.62.62 0 0 1 .129.013.66.66 0 0 1 .225.094.59.59 0 0 1 .167.181.58.58 0 0 1 .082.227.57.57 0 0 1-.135.453.62.62 0 0 1-.187.152c-.124.058-14.534 8.619-14.226 16.345a3.11 3.11 0 0 0 .309 1.489c.225.465.563.872.984 1.185.763.566 1.79.724 2.658.724.577-.001 1.152-.061 1.715-.181a.67.67 0 0 1 .146-.016c.109 0 .216.027.311.08a.6.6 0 0 1 .281.362c.042.157.02.324-.06.467s-.212.252-.371.305a12.94 12.94 0 0 1-2.032.181h-.262m-11.682-10.846c-.42-.022-.835-.101-1.232-.237-1.662-.773-2.463-2.972-2.463-6.777 0-5.349 11.145-10.58 21.555-15.157a40.6 40.6 0 0 0 4.124-1.901.61.61 0 0 1 .375-.237c.045-.011.092-.016.138-.016a.64.64 0 0 1 .298.074.58.58 0 0 1 .188.152.61.61 0 0 1 .116.213.62.62 0 0 1 .019.239c-.012.081-.04.158-.083.228-.245.416-1.048.773-4.686 2.377-6.773 2.913-20.805 9.035-20.805 14.028 0 4.041.984 5.29 1.787 5.646.147.06.306.089.466.083.937 0 2.454-.693 2.92-1.085a.69.69 0 0 1 .394-.123h.049a.69.69 0 0 1 .42.181.7.7 0 0 1-.062.89c-.124.06-1.786 1.427-3.511 1.427"/></g><g fill="#f55b7a"><path d="M129.976 367.936a.69.69 0 0 1-.42-.19.65.65 0 0 1-.195-.406v-1.664a4.93 4.93 0 0 1 .493-2.14l.375-.724c.307-.651 1.169-.651 5.295 1.129l4.249 1.903a.62.62 0 0 1 .187.154c.053.062.092.134.115.212s.03.16.018.24-.038.157-.08.226c-.032.071-.079.134-.139.185s-.13.088-.206.11a.55.55 0 0 1-.235.022c-.078-.01-.154-.036-.221-.078-3.203-1.545-6.959-3.149-8.007-3.269l-.245.362c-.248.523-.375 1.091-.375 1.666v1.665a.62.62 0 0 1-.047.228.63.63 0 0 1-.135.193c-.058.054-.125.098-.199.129s-.155.044-.236.045l.008.002z"/><path d="M121.908 370.134a.7.7 0 0 1-.403-.167.65.65 0 0 1-.211-.362c0-.119-.493-3.448 1.6-4.103s6.589-.416 7.143-.416c.078.001.156.016.227.046s.135.076.188.132a.54.54 0 0 1 .116.195.56.56 0 0 1 .022.222c.01.081.001.162-.026.239a.52.52 0 0 1-.343.331c-.079.026-.164.034-.247.024-1.415-.06-5.419-.118-6.65.362s-.863 2.142-.801 2.793a.55.55 0 0 1 0 .228c-.016.076-.048.147-.095.21a.56.56 0 0 1-.177.15c-.068.038-.145.061-.224.067l-.124.06.005-.011z"/><path d="M118.829 374.412c-.144.004-.284-.042-.396-.128a.59.59 0 0 1-.219-.346c-.062-.362-.678-3.448.862-4.935a2.99 2.99 0 0 1 1.365-.671 3.05 3.05 0 0 1 1.529.078.56.56 0 0 1 .322.133c.089.077.15.18.173.294.017.074.017.151 0 .226s-.045.155-.092.222a.6.6 0 0 1-.172.168c-.069.045-.147.075-.229.089a.63.63 0 0 1-.245 0c-.289-.105-.601-.133-.905-.081s-.587.182-.82.376c-.924.894-.74 3.092-.562 3.864a.6.6 0 0 1 0 .239c-.016.078-.047.152-.092.219a.56.56 0 0 1-.176.166.54.54 0 0 1-.229.089l-.114-.002z"/><path d="M117.597 382.385a2.31 2.31 0 0 1-1.169-.299c-.863-.595-1.355-1.724-1.417-3.506-.122-2.735.309-4.703 1.417-5.825.278-.301.62-.541 1.002-.705s.797-.248 1.215-.245a.6.6 0 0 1 .444.152c.12.107.193.254.203.411.004.079-.008.157-.036.232-.056.147-.17.267-.317.334-.072.034-.151.055-.232.06a1.82 1.82 0 0 0-.779.139 1.76 1.76 0 0 0-.638.454c-.562.595-1.232 1.902-1.048 4.934.062 1.306.375 2.198.862 2.554a.97.97 0 0 0 .394.118c.139.011.279-.008.409-.058a.63.63 0 0 1 .24-.038.64.64 0 0 1 .237.054.63.63 0 0 1 .323.34c.029.075.042.154.039.234a.52.52 0 0 1-.056.228c-.033.072-.083.137-.144.189s-.131.095-.208.122l-.741.121h0z"/><path d="M122.401 388.263h-.187l-.617-.12c-.642-.018-1.272-.171-1.846-.448s-1.079-.672-1.479-1.156c-.924-1.308-1.11-3.327-.562-6.242.016-.078.048-.152.094-.217a.6.6 0 0 1 .174-.166.63.63 0 0 1 .225-.093c.081-.015.164-.015.245 0a.63.63 0 0 1 .399.259.58.58 0 0 1 .095.219c.016.078.016.159-.001.237-.492 2.533-.367 4.316.375 5.349.617.833 1.662 1.01 2.463 1.131a2.01 2.01 0 0 1 .862.181c.076.018.147.053.206.101a.53.53 0 0 1 .145.175c.035.067.054.141.058.216s-.01.151-.04.221c-.062.105-.151.193-.258.255s-.231.096-.357.101l.006-.003z"/><path d="M126.836 393.61h-.124c-1.296-.368-2.571-.804-3.818-1.306-.393-.131-.749-.351-1.038-.64s-.502-.64-.624-1.024c-.563-1.842 1.169-4.161 1.415-4.396.042-.072.1-.134.17-.181.106-.067.231-.098.356-.087s.244.06.336.143c.119.102.196.242.219.394s-.011.307-.095.438c-.493.543-1.539 2.318-1.232 3.388.078.198.201.377.36.522a1.44 1.44 0 0 0 .563.311l3.632 1.246c.153.052.285.15.375.281s.131.28.122.434a.65.65 0 0 1-.229.332.69.69 0 0 1-.386.142l-.002.003z"/><path d="M134.534 396.881c-.506-.024-1.005-.124-1.479-.297a17.68 17.68 0 0 0-3.694-.714c-1.725-.181-2.711-.713-3.08-1.605s.862-2.554.986-2.674.289-.18.461-.181a.7.7 0 0 1 .602.597c0 .149-.049.294-.139.415-.309.298-.864 1.011-.75 1.487s.924.655 2.032.772c1.332.155 2.648.414 3.936.773 1.11.298 1.355.416 2.218-.181.909-.545 1.704-1.252 2.341-2.082.098-.124.238-.209.395-.241s.323-.01.465.065a.53.53 0 0 1 .174.145c.046.06.079.128.096.201a.49.49 0 0 1 0 .222.54.54 0 0 1-.09.205c0 .057-.677 1.188-2.71 2.494a3.33 3.33 0 0 1-1.785.596l.021.003z"/><path d="M141.308 397.596c-1.787 0-4.25-1.605-4.804-1.903-.07-.043-.129-.098-.177-.163s-.081-.138-.097-.215a.55.55 0 0 1 0-.236.58.58 0 0 1 .092-.219.63.63 0 0 1 .168-.17.62.62 0 0 1 .224-.094.63.63 0 0 1 .245 0c.08.016.157.046.225.089 1.355.832 3.572 1.961 4.435 1.664.109-.047.196-.131.245-.237.53-1.367 1.475-2.547 2.71-3.388a.6.6 0 0 1 .227-.089c.081-.015.163-.015.244 0a.64.64 0 0 1 .223.094c.067.047.125.105.169.172a.63.63 0 0 1 .066.45.64.64 0 0 1-.254.382 5.61 5.61 0 0 0-2.215 2.794 1.61 1.61 0 0 1-.412.589 1.67 1.67 0 0 1-.636.36l-.677.122-.001-.002z"/><path d="M145.433 395.573a10.9 10.9 0 0 1-2.279-.237.57.57 0 0 1-.225-.067.52.52 0 0 1-.176-.154c-.047-.061-.079-.131-.094-.206s-.017-.153 0-.228.047-.153.092-.22.105-.124.174-.169a.62.62 0 0 1 .227-.088c.082-.017.166-.017.247 0 2.34.362 4.002.181 4.802-.655s.563-2.555.432-3.269c-.046-.135-.066-.275-.06-.416a.58.58 0 0 1 .05-.229c.032-.072.079-.138.137-.193.115-.113.271-.178.435-.181a.69.69 0 0 1 .42.181c.108.11.175.254.187.405a.2.2 0 0 0 .011.094c.011.031.028.06.051.084.122.832.615 2.914-.8 4.341s-1.972 1.191-3.635 1.191l.004.016z"/><path d="M149.499 393.433l-.124-1.189 6.157-.414c.062 0 .124 0 .248-.119s.431-2.674.245-3.922c-.032-.158.002-.322.094-.456a.59.59 0 0 1 .173-.168.63.63 0 0 1 .226-.091c.081-.016.164-.017.246-.002a.66.66 0 0 1 .227.09c.068.045.127.102.173.168s.077.141.093.22c.061.416.562 3.618-.553 4.872a1.35 1.35 0 0 1-.478.432c-.194.102-.411.159-.632.165l-6.095.414h0z"/><path d="M156.764 389.212a.73.73 0 0 1-.492-.235.58.58 0 0 1-.093-.22c-.015-.078-.014-.158.004-.235a.58.58 0 0 1 .097-.216c.047-.065.107-.12.176-.163.679-.533.8-.832 1.232-2.198l.493-1.545c.132-.24.197-.509.187-.781s-.095-.536-.246-.766c-.493-.654-1.724-.83-2.031-.83-.084.009-.168 0-.247-.027s-.151-.07-.211-.127-.104-.127-.131-.204a.5.5 0 0 1-.026-.239.58.58 0 0 1 .181-.418c.115-.111.271-.174.434-.174.676 0 2.279.295 3.017 1.307a2.61 2.61 0 0 1 .478 1.277 2.6 2.6 0 0 1-.232 1.339l-.491 1.545c-.431 1.425-.617 2.02-1.725 2.793-.05.043-.109.076-.172.097s-.132.026-.199.02h-.003z"/><path d="M157.628 382.385h-.124c-.081-.016-.159-.046-.229-.089s-.13-.102-.176-.17-.077-.14-.092-.219-.017-.159 0-.237c0-.058.986-5.232.739-7.071a.58.58 0 0 0-.188-.362 2.6 2.6 0 0 0-1.786.059c-.219.065-.452.076-.677.035s-.437-.136-.616-.273c-.179-.119-.323-.279-.418-.467a1.19 1.19 0 0 1-.137-.601v-1.427c0-.12-.062-.181-.124-.181l-2.093-.95c-1.601-.713-2.956 1.605-3.018 1.605-.033.069-.08.13-.139.181s-.128.088-.204.108a.5.5 0 0 1-.234.02c-.08-.009-.156-.035-.223-.076-.073-.031-.137-.077-.19-.135a.53.53 0 0 1-.137-.422.52.52 0 0 1 .081-.215c.677-1.189 2.463-3.15 4.557-2.14l2.155.951c.248.106.457.282.6.505s.212.482.2.743v1.428a.18.18 0 0 0 .062.117h.188c1.231-.361 2.217-.298 2.832.06.398.287.664.714.738 1.189.248 2.02-.676 7.252-.738 7.488a.59.59 0 0 1-.198.386.63.63 0 0 1-.417.156l.006.004z"/><path d="M149.189 371.145c-.143.002-.283-.044-.396-.131a.59.59 0 0 1-.218-.345c-.188-.772-.863-3.032-1.663-3.687s-4.804-.772-8.376-.772a.58.58 0 0 1-.231-.022.6.6 0 0 1-.202-.112.53.53 0 0 1-.135-.181.51.51 0 0 1-.047-.221.64.64 0 0 1 .176-.443.7.7 0 0 1 .439-.212c1.848 0 7.943 0 9.184 1.071s1.97 3.98 2.094 4.281a.64.64 0 0 1-.085.483.69.69 0 0 1-.408.289l-.132.002zm-18.475 6.536h-.187c-2.525-.595-2.649-.951-2.772-1.188-.099-.63-.119-1.268-.06-1.902 0-.048-.02-.094-.055-.128s-.083-.053-.133-.053c-.869-.053-1.693-.388-2.341-.949-.615-.713-.552-1.783.188-3.21.144-.248.362-.448.626-.575a1.52 1.52 0 0 1 .852-.138l3.509.417c.152.028.288.111.379.232a.57.57 0 0 1 .114.419.6.6 0 0 1-.069.226c-.038.07-.091.131-.154.181a.63.63 0 0 1-.214.11c-.077.022-.159.029-.24.022l-3.51-.416h-.188c-.493.89-.616 1.605-.374 1.84a2.56 2.56 0 0 0 1.54.597c.365.03.704.195.945.461a1.34 1.34 0 0 1 .349.966v1.366l1.908.543a.62.62 0 0 1 .231.067c.072.037.135.087.187.148.077.092.124.203.135.321a.58.58 0 0 1-.071.34c-.058.104-.146.189-.254.244a.63.63 0 0 1-.352.068l.011-.009zm-7.758 7.253h-.124c-.081-.014-.159-.044-.228-.089a.61.61 0 0 1-.177-.166c-.045-.067-.076-.142-.091-.221a.6.6 0 0 1 0-.239c.061-.474.676-4.633 3.325-4.455h2.217c1.601 0 2.032.057 2.279.361l.188.237v.362a.24.24 0 0 0 .013.096c.01.031.026.059.049.083h.247a1.49 1.49 0 0 1 .677-.181c1.6 0 1.969 2.499 2.031 2.795.01.078.002.157-.022.232a.61.61 0 0 1-.113.206.63.63 0 0 1-.187.149c-.072.035-.15.058-.231.067a.55.55 0 0 1-.236 0 .52.52 0 0 1-.215-.091.53.53 0 0 1-.157-.17.51.51 0 0 1-.07-.217c-.122-.832-.493-1.784-.8-1.784h-.124c-.237.095-.494.135-.75.118a1.6 1.6 0 0 1-.723-.235c-.163-.098-.301-.228-.407-.382s-.178-.328-.21-.51h-3.449c-1.293-.058-1.908 2.554-2.093 3.448a.59.59 0 0 1-.181.419c-.115.111-.271.174-.434.174l-.004-.007zm16.258-4.516a.57.57 0 0 1-.279-.057.54.54 0 0 1-.214-.181c-.431-.476-1.11-1.37-.986-2.021l.124-.299-.188-.181c-.562-.712-1.355-1.724-.986-2.733s1.11-1.368 2.649-1.666a.59.59 0 0 1 .24-.029c.082.007.161.03.232.069a.52.52 0 0 1 .176.159.53.53 0 0 1 .092.217.6.6 0 0 1-.094.458.61.61 0 0 1-.174.166c-.07.044-.147.074-.229.089-.985.238-1.6.542-1.724.892s.375 1.128.8 1.606.615.772.493 1.189a.53.53 0 0 1-.187.361c.216.338.464.656.74.95.091.125.135.275.124.427s-.076.301-.19.409a.65.65 0 0 1-.427.177l.008-.002zm8.99-.835h-.188c-.187-.058-1.786-.543-2.094-1.723a2.06 2.06 0 0 1 .1-1.149 2.11 2.11 0 0 1 .701-.929.63.63 0 0 1 .412-.12c.147.01.285.07.39.17a.59.59 0 0 1 .182.373c.013.141-.034.283-.122.398-.187.237-.562.655-.493.952s.924.772 1.231.891a.55.55 0 0 1 .225.087.52.52 0 0 1 .165.172c.042.068.067.144.073.223s-.003.156-.031.229c-.029.122-.1.231-.201.308a.54.54 0 0 1-.354.108l.004.01zm1.602 6.963c-.096.005-.193-.014-.279-.054a.58.58 0 0 1-.214-.181c-.084-.131-.118-.286-.095-.438a.65.65 0 0 1 .219-.395c1.169-.772 1.107-1.128 1.107-1.188-.109-.145-.247-.267-.406-.36a1.44 1.44 0 0 0-.518-.183.66.66 0 0 1-.21-.121c-.091-.08-.156-.185-.184-.302a.57.57 0 0 1 .025-.349c.021-.073.057-.14.107-.199a.55.55 0 0 1 .18-.14.64.64 0 0 1 .225-.056.63.63 0 0 1 .227.036c.374.06 1.602.476 1.786 1.488s-.431 1.545-1.601 2.317c-.048.046-.106.081-.17.103s-.132.027-.199.016v.006zm-13.671 3.381h-.188a.67.67 0 0 1-.369-.306c-.08-.143-.102-.309-.062-.467.187-.416 1.541-4.099 3.573-4.703.334-.077.682-.074 1.015.009a2.13 2.13 0 0 1 .893.467 1.37 1.37 0 0 1 .37.482 1.33 1.33 0 0 1 .123.589v1.961c.009.08 0 .162-.027.238a.55.55 0 0 1-.131.203.57.57 0 0 1-.212.127.6.6 0 0 1-.245.027.64.64 0 0 1-.237-.045.63.63 0 0 1-.2-.129.58.58 0 0 1-.18-.421v-1.956c.003-.033-.001-.066-.011-.098a.19.19 0 0 0-.051-.079c-.099-.105-.23-.178-.375-.208a.79.79 0 0 0-.429.027c-1.046.239-2.217 2.558-2.71 3.924a.61.61 0 0 1-.221.257.67.67 0 0 1-.332.099l.006.002z"/><path d="M144.14 388.561h-.188a.67.67 0 0 1-.347-.283.64.64 0 0 1-.086-.431 1.43 1.43 0 0 0 .098-.668 1.47 1.47 0 0 0-.219-.64c-.188-.12-.75-.362-2.28.296-.076.03-.158.045-.24.042a.61.61 0 0 1-.238-.058.62.62 0 0 1-.196-.139c-.055-.058-.098-.127-.126-.201-.061-.143-.061-.303 0-.445s.17-.262.315-.328c1.662-.651 2.834-.651 3.572-.059s.563 2.319.563 2.496c-.055.117-.141.217-.25.29s-.24.119-.374.128h-.004z"/></g><g fill="#b24225"><path d="M41.488 154.057c1.334-.858 2.037-2.594 2.223-3.354.834-2.817 3.198-3.756 3.893-3.89s1.17-.465 1.668 1.341c.562 2.013-.088 3.661-1.947 5.903-1.666 2.013-5.837 2.817-7.644 2.281s.139-1.208 1.807-2.281h0zm3.303-6.627c-1.34.85-2.062 2.58-2.249 3.34-.855 2.811-3.224 3.734-3.919 3.864s-1.173.456-1.659-1.353c-.542-2.016.114-3.66 1.989-5.889 1.687-2.003 5.857-2.779 7.66-2.23s-.148 1.206-1.824 2.268h.002z"/></g><path d="M361.219 210.6l.431.235.801.239 16.625 3.687-15.703-.595s-1.91-2.497-2.154-3.566z" fill="#4c7ec0"/><g fill="#7c4b9e"><path d="M362.301 102.029l-1.243-.098.283-5.753c-.002-.081.015-.162.051-.235s.087-.139.152-.192.142-.088.224-.107.169-.019.252 0a.68.68 0 0 1 .406.226.64.64 0 0 1 .156.427c-.187 1.246-.261 3.374-.272 5.731"/><path d="M361.958 114.783a.64.64 0 0 1-.437-.181c-.059-.054-.105-.12-.138-.192a.57.57 0 0 1-.049-.229c-.043-.362-.323-6.906-.283-12.257l1.242.098c-.026 5.4.272 12.018.272 12.101a.64.64 0 0 1-.176.441c-.114.121-.27.197-.439.212"/></g></g><defs><linearGradient id="A" x1="450.293" y1="358.144" x2="424.881" y2="354.98" xlink:href="#W"><stop stop-color="#c1c1c1"/><stop offset=".531" stop-color="#f5f5f5"/><stop offset=".984" stop-color="#dadada"/></linearGradient><linearGradient id="B" x1="482.938" y1="371.406" x2="475.065" y2="333.515" xlink:href="#W"><stop stop-color="#c1c1c1"/><stop offset=".531" stop-color="#f5f5f5"/><stop offset=".984" stop-color="#dadada"/></linearGradient><linearGradient id="C" x1="493.382" y1="281.815" x2="489.931" y2="253.186" xlink:href="#W"><stop stop-color="#c1c1c1"/><stop offset=".531" stop-color="#f5f5f5"/><stop offset=".984" stop-color="#dadada"/></linearGradient><linearGradient id="D" x1="89.384" y1="271.776" x2="75.599" y2="232.385" xlink:href="#W"><stop stop-color="#949494"/><stop offset=".531" stop-color="#cbcbcb"/><stop offset=".984" stop-color="#838383"/></linearGradient><linearGradient id="E" x1="89.382" y1="355.246" x2="-6.06" y2="300.93" xlink:href="#W"><stop stop-color="#949494"/><stop offset=".531" stop-color="#cbcbcb"/><stop offset=".984" stop-color="#838383"/></linearGradient><linearGradient id="F" x1="87.691" y1="292.153" x2="84.999" y2="274.592" xlink:href="#W"><stop stop-color="#949494"/><stop offset=".531" stop-color="#cbcbcb"/><stop offset=".984" stop-color="#838383"/></linearGradient><linearGradient id="G" x1="86.309" y1="310.993" x2="83.427" y2="293.451" xlink:href="#W"><stop stop-color="#949494"/><stop offset=".531" stop-color="#cbcbcb"/><stop offset=".984" stop-color="#838383"/></linearGradient><linearGradient id="H" x1="84.797" y1="329.469" x2="81.582" y2="311.657" xlink:href="#W"><stop stop-color="#949494"/><stop offset=".531" stop-color="#cbcbcb"/><stop offset=".984" stop-color="#838383"/></linearGradient><linearGradient id="I" x1="83.32" y1="348.086" x2="80.004" y2="330.714" xlink:href="#W"><stop stop-color="#949494"/><stop offset=".531" stop-color="#cbcbcb"/><stop offset=".984" stop-color="#838383"/></linearGradient><linearGradient id="J" x1="43.326" y1="353.639" x2="33.89" y2="353.189" xlink:href="#W"><stop stop-color="#949494"/><stop offset=".531" stop-color="#cbcbcb"/><stop offset=".984" stop-color="#838383"/></linearGradient><linearGradient id="K" x1="63.935" y1="356.02" x2="62.102" y2="356.004" xlink:href="#W"><stop stop-color="#949494"/><stop offset=".531" stop-color="#cbcbcb"/><stop offset=".984" stop-color="#838383"/></linearGradient><linearGradient id="L" x1="87.761" y1="353.633" x2="79.811" y2="353.314" xlink:href="#W"><stop stop-color="#949494"/><stop offset=".531" stop-color="#cbcbcb"/><stop offset=".984" stop-color="#838383"/></linearGradient><linearGradient id="M" x1="488.121" y1="203.528" x2="330.435" y2="108.054" xlink:href="#W"><stop stop-color="#c1c1c1"/><stop offset=".531" stop-color="#f5f5f5"/><stop offset=".984" stop-color="#dadada"/></linearGradient><linearGradient id="N" x1="387" y1="190" x2="503" y2="123.5" xlink:href="#W"><stop stop-color="#fd4d70"/><stop offset="1" stop-color="#f8869d"/></linearGradient><linearGradient id="O" x1="167.708" y1="169.292" x2="157.32" y2="105.516" xlink:href="#W"><stop stop-color="#c1c1c1"/><stop offset=".531" stop-color="#f5f5f5"/><stop offset=".984" stop-color="#dadada"/></linearGradient><linearGradient id="P" x1="264.512" y1="347.986" x2="103.545" y2="101.921" xlink:href="#W"><stop stop-color="#929292"/><stop offset=".51" stop-color="#e7e7e7"/><stop offset=".984" stop-color="silver"/></linearGradient><linearGradient id="Q" x1="194.5" y1="131" x2="70" y2="17.5" xlink:href="#W"><stop stop-color="#c1c1c1"/><stop offset=".531" stop-color="#f5f5f5"/><stop offset=".984" stop-color="#dadada"/></linearGradient><linearGradient id="R" x1="52.235" y1="167.852" x2="14.385" y2="150.981" xlink:href="#W"><stop stop-color="#c1c1c1"/><stop offset=".531" stop-color="#f5f5f5"/><stop offset=".984" stop-color="#dadada"/></linearGradient><linearGradient id="S" x1="296.563" y1="59.945" x2="224.988" y2="-4.61" xlink:href="#W"><stop stop-color="#555"/><stop offset=".531" stop-color="#4f4f4f"/><stop offset=".984" stop-color="#bfbfbf"/></linearGradient><linearGradient id="T" x1="536.5" y1="107.5" x2="312" y2="139" xlink:href="#W"><stop stop-color="#323fd4"/><stop offset="1" stop-color="#f55b7a"/></linearGradient><linearGradient id="U" x1="331.455" y1="221.963" x2="315.453" y2="211.99" xlink:href="#W"><stop stop-color="#acacac"/><stop offset=".531" stop-color="#f5f5f5"/><stop offset=".984" stop-color="#bfbfbf"/></linearGradient><clipPath id="V"><path fill="#fff" transform="translate(.345 .123)" d="M0 0h537v403H0z"/></clipPath><linearGradient id="W" gradientUnits="userSpaceOnUse"/></defs></svg>