<svg width="41" height="40" viewBox="0 0 41 40" fill="none" xmlns="http://www.w3.org/2000/svg">
<path d="M20.5 39.6366C30.5415 39.6366 38.6818 31.4963 38.6818 21.4548C38.6818 11.4132 30.5415 3.27295 20.5 3.27295C10.4585 3.27295 2.31818 11.4132 2.31818 21.4548C2.31818 31.4963 10.4585 39.6366 20.5 39.6366Z" fill="#E7EFFF"/>
<path d="M20.5 39.6366C30.5415 39.6366 38.6818 31.4963 38.6818 21.4548C38.6818 11.4132 30.5415 3.27295 20.5 3.27295C10.4585 3.27295 2.31818 11.4132 2.31818 21.4548C2.31818 31.4963 10.4585 39.6366 20.5 39.6366Z" fill="#E7EFFF"/>
<path d="M3.04544 6.18182C3.64793 6.18182 4.13635 5.6934 4.13635 5.09091C4.13635 4.48842 3.64793 4 3.04544 4C2.44295 4 1.95453 4.48842 1.95453 5.09091C1.95453 5.6934 2.44295 6.18182 3.04544 6.18182Z" fill="#00C99F"/>
<path d="M5.22726 19.6364C5.82975 19.6364 6.31817 19.148 6.31817 18.5455C6.31817 17.943 5.82975 17.4546 5.22726 17.4546C4.62477 17.4546 4.13635 17.943 4.13635 18.5455C4.13635 19.148 4.62477 19.6364 5.22726 19.6364Z" fill="#FF4D69"/>
<path d="M36.1363 19.2731C36.7388 19.2731 37.2272 18.7847 37.2272 18.1822C37.2272 17.5797 36.7388 17.0913 36.1363 17.0913C35.5338 17.0913 35.0454 17.5797 35.0454 18.1822C35.0454 18.7847 35.5338 19.2731 36.1363 19.2731Z" fill="#FFA100"/>
<path d="M37.5909 36.7277C38.1934 36.7277 38.6818 36.2393 38.6818 35.6368C38.6818 35.0343 38.1934 34.5459 37.5909 34.5459C36.9884 34.5459 36.5 35.0343 36.5 35.6368C36.5 36.2393 36.9884 36.7277 37.5909 36.7277Z" fill="#00C99F"/>
<path d="M34.6818 21.4546V32.8255C32.9781 34.949 30.8194 36.6629 28.3648 37.8405C25.9102 39.0181 23.2225 39.6295 20.5 39.6295C17.7775 39.6295 15.0898 39.0181 12.6352 37.8405C10.1806 36.6629 8.02184 34.949 6.31818 32.8255V21.4546H34.6818Z" fill="#4E6AFF"/>
<path d="M34.6818 21.4546L20.5 31.6365L6.31818 21.4546L20.5 10.9092L34.6818 21.4546Z" fill="#323FD4"/>
<path d="M31.4091 9.09104V23.8038L20.5 31.6365L9.59088 23.8038V9.09104C9.59088 8.89816 9.6675 8.71317 9.80389 8.57678C9.94028 8.44039 10.1253 8.36377 10.3182 8.36377H30.6818C30.8747 8.36377 31.0597 8.44039 31.196 8.57678C31.3324 8.71317 31.4091 8.89816 31.4091 9.09104Z" fill="white"/>
<path d="M25.5036 16.5131C25.3123 15.4965 24.8158 14.5624 24.0804 13.835C23.3449 13.1076 22.4053 12.6216 21.3867 12.4415C20.3681 12.2614 19.3189 12.3959 18.3786 12.8271C17.4383 13.2582 16.6517 13.9655 16.1235 14.8549C15.5953 15.7442 15.3505 16.7734 15.4217 17.8053C15.4929 18.8372 15.8768 19.823 16.5223 20.6313C17.1677 21.4396 18.0441 22.0321 19.0346 22.33C20.0252 22.6278 21.083 22.6169 22.0672 22.2985C22.1142 22.2851 22.1581 22.2623 22.1961 22.2316C22.2341 22.2008 22.2655 22.1627 22.2885 22.1196C22.3115 22.0764 22.3255 22.029 22.3297 21.9803C22.3339 21.9316 22.3283 21.8825 22.3131 21.836C22.298 21.7896 22.2736 21.7466 22.2414 21.7098C22.2093 21.6729 22.17 21.6429 22.126 21.6216C22.082 21.6003 22.0342 21.5881 21.9853 21.5857C21.9365 21.5832 21.8877 21.5907 21.8418 21.6076C20.9323 21.9011 19.9516 21.8878 19.0503 21.5699C18.149 21.252 17.3771 20.647 16.853 19.8478C16.3289 19.0487 16.0816 18.0996 16.1492 17.1463C16.2167 16.193 16.5954 15.2882 17.227 14.571C17.8585 13.8538 18.7081 13.3637 19.6452 13.1761C20.5823 12.9884 21.5551 13.1136 22.4141 13.5324C23.2731 13.9512 23.9709 14.6405 24.4003 15.4942C24.8297 16.348 24.9669 17.3192 24.7909 18.2585C24.7331 18.5634 24.5637 18.8358 24.3158 19.0225C24.0679 19.2093 23.7593 19.2969 23.4503 19.2682C23.1413 19.2396 22.8541 19.0968 22.6447 18.8677C22.4354 18.6387 22.3189 18.3398 22.3181 18.0294V15.2731C22.3181 15.1766 22.2798 15.0841 22.2116 15.0159C22.1434 14.9477 22.0509 14.9094 21.9545 14.9094H20.8636C20.0921 14.9094 19.3521 15.2159 18.8066 15.7615C18.261 16.307 17.9545 17.047 17.9545 17.8185C17.9559 18.279 18.103 18.7272 18.3747 19.0991C18.6464 19.4709 19.0287 19.7472 19.467 19.8884C19.9053 20.0297 20.3771 20.0286 20.8147 19.8854C21.2524 19.7422 21.6335 19.4643 21.9036 19.0912C22.1174 19.4232 22.4259 19.6835 22.7892 19.8383C23.1524 19.9932 23.5538 20.0356 23.9414 19.96C24.329 19.8845 24.685 19.6944 24.9635 19.4144C25.242 19.1345 25.4301 18.7774 25.5036 18.3894C25.6198 17.7694 25.6198 17.1331 25.5036 16.5131ZM20.1363 19.2731C19.7505 19.2731 19.3806 19.1198 19.1078 18.847C18.835 18.5743 18.6818 18.2043 18.6818 17.8185C18.6818 17.2399 18.9116 16.6849 19.3208 16.2757C19.73 15.8666 20.2849 15.6367 20.8636 15.6367H21.5909V17.8185C21.5909 18.2043 21.4376 18.5743 21.1648 18.847C20.8921 19.1198 20.5221 19.2731 20.1363 19.2731Z" fill="#7F96D1"/>
<path d="M25.2272 25.8186H15.7727C15.6763 25.8186 15.5838 25.7803 15.5156 25.7121C15.4474 25.6439 15.4091 25.5514 15.4091 25.4549C15.4091 25.3585 15.4474 25.266 15.5156 25.1978C15.5838 25.1296 15.6763 25.0913 15.7727 25.0913H25.2272C25.3237 25.0913 25.4162 25.1296 25.4844 25.1978C25.5526 25.266 25.5909 25.3585 25.5909 25.4549C25.5909 25.5514 25.5526 25.6439 25.4844 25.7121C25.4162 25.7803 25.3237 25.8186 25.2272 25.8186Z" fill="#A5BCED"/>
<path d="M31.7727 33.8186H29.5909C29.4944 33.8186 29.4019 33.7803 29.3337 33.7121C29.2655 33.6439 29.2272 33.5514 29.2272 33.4549C29.2272 33.3585 29.2655 33.266 29.3337 33.1978C29.4019 33.1296 29.4944 33.0913 29.5909 33.0913H31.7727C31.8691 33.0913 31.9616 33.1296 32.0298 33.1978C32.098 33.266 32.1363 33.3585 32.1363 33.4549C32.1363 33.5514 32.098 33.6439 32.0298 33.7121C31.9616 33.7803 31.8691 33.8186 31.7727 33.8186Z" fill="white"/>
<path d="M31.7727 31.6365H29.5909C29.4944 31.6365 29.4019 31.5981 29.3337 31.5299C29.2655 31.4618 29.2272 31.3693 29.2272 31.2728C29.2272 31.1764 29.2655 31.0839 29.3337 31.0157C29.4019 30.9475 29.4944 30.9092 29.5909 30.9092H31.7727C31.8691 30.9092 31.9616 30.9475 32.0298 31.0157C32.098 31.0839 32.1363 31.1764 32.1363 31.2728C32.1363 31.3693 32.098 31.4618 32.0298 31.5299C31.9616 31.5981 31.8691 31.6365 31.7727 31.6365Z" fill="white"/>
<path d="M12.8636 10.5456H11.409C11.3126 10.5456 11.2201 10.5073 11.1519 10.4391C11.0837 10.3709 11.0454 10.2784 11.0454 10.182C11.0454 10.0856 11.0837 9.99306 11.1519 9.92487C11.2201 9.85667 11.3126 9.81836 11.409 9.81836H12.8636C12.96 9.81836 13.0525 9.85667 13.1207 9.92487C13.1889 9.99306 13.2272 10.0856 13.2272 10.182C13.2272 10.2784 13.1889 10.3709 13.1207 10.4391C13.0525 10.5073 12.96 10.5456 12.8636 10.5456Z" fill="#8FA2FF"/>
</svg>