<svg width="183" height="157" viewBox="0 0 183 157" fill="none" xmlns="http://www.w3.org/2000/svg">
<g clip-path="url(#clip0_32_3516)">
<path d="M177.87 110.367L75.7719 143.011C72.8001 143.961 69.6323 142.328 68.6822 139.356L48.5367 76.3485C47.4678 73.0052 49.3145 69.4226 52.6577 68.3537L151.822 36.6479C155.804 35.3749 160.075 37.5684 161.351 41.5594L181.259 103.824C182.123 106.561 180.613 109.49 177.87 110.367Z" fill="#0C1795"/>
<path d="M177.727 110.413L126.616 126.754L75.5053 143.096C72.6859 143.997 69.669 142.442 68.7676 139.623L48.8871 77.4439C48.6404 76.6723 48.6791 75.8411 49.0012 75.1082C49.3755 74.2431 50.3703 73.841 51.2484 74.1902L100.669 94.0322L110.893 98.1332C115.264 99.8852 120.256 98.2578 122.746 94.2593L157.702 38.1907C161.616 40.0889 161.856 43.1721 161.856 43.1721L181.201 103.675C182.102 106.494 180.547 109.511 177.727 110.413Z" fill="#323FD4"/>
<path d="M73.2158 143.324C72.9491 143.409 72.6584 143.387 72.3979 143.229C71.9206 142.951 71.7668 142.339 72.0447 141.861L101.775 91.715C102.053 91.2377 102.675 91.0809 103.143 91.3618C103.62 91.6397 103.774 92.2519 103.496 92.7292L73.7683 142.885C73.6391 143.105 73.4349 143.254 73.2158 143.324Z" fill="#0C1795"/>
<path d="M178.971 109.606C178.752 109.676 178.499 109.673 178.266 109.569L125.743 86.9496C125.233 86.7346 125.003 86.1468 125.218 85.6371C125.433 85.1274 126.021 84.8974 126.53 85.1124L179.054 107.731C179.563 107.946 179.793 108.534 179.578 109.044C179.471 109.33 179.237 109.52 178.971 109.606Z" fill="#0C1795"/>
</g>
<g clip-path="url(#clip1_32_3516)">
<path d="M63.6532 62.852C62.1512 47.3938 48.4021 36.08 32.9439 37.5821C17.4856 39.0841 6.17188 52.8331 7.6739 68.2913C9.17592 83.7496 22.9249 95.0634 38.3832 93.5613C53.8414 92.0593 65.1552 78.3103 63.6532 62.852Z" fill="#F65C7B"/>
<path d="M41.3482 83.3526C38.3314 84.3172 35.0714 82.8738 33.7705 79.9892L33.592 79.5854L45.4875 75.7821L45.5764 76.2146C46.1828 79.3212 44.365 82.3881 41.3482 83.3526ZM34.6821 80.0599C35.9288 82.3116 38.6153 83.4033 41.1094 82.6059C43.6035 81.8085 45.1584 79.3606 44.8675 76.8034L34.6821 80.0599Z" fill="white"/>
<path d="M48.7878 68.702L26.7965 75.7333L23.5829 65.6822C21.7254 59.8727 24.9409 53.6345 30.7505 51.777L31.669 51.4834C37.4786 49.6259 43.7167 52.8414 45.5742 58.651L48.7878 68.702ZM27.3045 74.7478L47.8023 68.194L44.8274 58.8897C43.1013 53.4909 37.3066 50.5039 31.9077 52.2301L30.9893 52.5238C25.5904 54.25 22.6035 60.0446 24.3296 65.4435L27.3045 74.7478Z" fill="white"/>
<path d="M50.4084 75.0318L29.1489 81.8291C27.3045 82.4188 25.3236 81.3978 24.7339 79.5533L24.648 79.2845C24.0583 77.4401 25.0793 75.4593 26.9237 74.8696L48.1757 68.0747C50.0202 67.4849 52.001 68.506 52.5907 70.3504L52.6767 70.6192C53.2739 72.4613 52.2528 74.4421 50.4084 75.0318ZM27.17 75.6139C25.7288 76.0747 24.9363 77.612 25.3947 79.0458L25.4807 79.3146C25.9391 80.7483 27.4764 81.5408 28.9101 81.0824L50.1622 74.2875C51.5959 73.8291 52.3883 72.2917 51.9299 70.858L51.844 70.5892C51.3856 69.1554 49.8482 68.363 48.4145 68.8214L27.17 75.6139Z" fill="white"/>
<path d="M34.5213 69.7489L26.1504 72.4253C25.9414 72.4922 25.7246 72.3804 25.6577 72.1714C25.5909 71.9623 25.7026 71.7455 25.9117 71.6786L34.2826 69.0022C34.4917 68.9353 34.7085 69.0471 34.7753 69.2562C34.8422 69.4653 34.7229 69.6845 34.5213 69.7489Z" fill="white"/>
<path d="M35.7757 69.3479C35.6786 69.3789 35.5696 69.3726 35.4734 69.3293C35.4316 69.3015 35.3898 69.2737 35.3605 69.2337C35.3214 69.1886 35.2996 69.1461 35.2853 69.1013C35.2686 69.0491 35.2594 68.9944 35.2674 68.9424C35.268 68.8929 35.286 68.846 35.3039 68.7991C35.3317 68.7573 35.3669 68.7131 35.4046 68.6764C35.5223 68.5811 35.6961 68.5585 35.8341 68.6296C35.8834 68.655 35.9252 68.6828 35.9544 68.7228C35.9911 68.7604 36.0153 68.8103 36.032 68.8626C36.0464 68.9074 36.0532 68.9546 36.0475 69.014C36.0469 69.0636 36.029 69.1105 36.0036 69.1597C35.9833 69.1992 35.948 69.2434 35.9104 69.2801C35.8703 69.3094 35.8205 69.3335 35.7757 69.3479Z" fill="white"/>
<path d="M30.6761 49.5621C30.467 49.6289 30.2502 49.5172 30.1833 49.3081L28.4309 43.8271C28.364 43.618 28.4758 43.4012 28.6849 43.3343C28.894 43.2675 29.1108 43.3792 29.1776 43.5883L30.9301 49.0693C30.9969 49.2784 30.8852 49.4952 30.6761 49.5621Z" fill="white"/>
<path d="M38.4777 48.8126C38.403 48.8365 38.3286 48.8355 38.2471 48.8122C38.0395 48.7551 37.9183 48.5305 37.9853 48.328L38.7977 45.5661C38.8623 45.3562 39.072 45.2397 39.2894 45.3019C39.497 45.359 39.6182 45.5836 39.5512 45.7861L38.7388 48.548C38.6999 48.6839 38.5971 48.7744 38.4777 48.8126Z" fill="white"/>
<path d="M23.6552 53.5518C23.5358 53.59 23.3972 53.5685 23.2966 53.4854L21.0325 51.7072C20.8656 51.5712 20.8289 51.3278 20.9648 51.1609C21.0984 50.9865 21.3442 50.9573 21.5186 51.0908L23.7826 52.8691C23.9496 53.005 23.9862 53.2484 23.8503 53.4153C23.79 53.484 23.7224 53.5303 23.6552 53.5518Z" fill="white"/>
</g>
<defs>
<clipPath id="clip0_32_3516">
<rect width="118.11" height="78.15" fill="white" transform="translate(46.5999 70.2906) rotate(-17.7306)"/>
</clipPath>
<clipPath id="clip1_32_3516">
<rect width="56.25" height="56.25" fill="white" transform="translate(0.311768 47.3442) rotate(-17.7306)"/>
</clipPath>
</defs>
</svg>
