<svg width="181" height="165" viewBox="0 0 181 165" fill="none" xmlns="http://www.w3.org/2000/svg">
<g clip-path="url(#clip0_32_3479)">
<path d="M97.7679 94.2749L17.0074 75.8303C14.5214 75.2626 12.974 72.7859 13.5395 70.3096L24.8035 20.9895C25.5115 17.8894 28.599 15.9583 31.6894 16.6641L109.028 34.3271C112.781 35.1843 115.128 38.9207 114.271 42.6741L103.279 90.8048C102.723 93.2832 100.254 94.8426 97.7679 94.2749Z" fill="#0E0D9A"/>
<path opacity="0.59" d="M98.1871 94.3706L57.3876 85.0526L16.5881 75.7346C14.3361 75.2203 12.9317 72.9711 13.446 70.7191L24.7812 21.087C24.9215 20.4728 25.2815 19.9294 25.7859 19.5624C26.3763 19.1331 27.2108 19.2519 27.6521 19.8348L52.953 52.775L58.1867 59.5914C60.4246 62.5027 64.4262 63.3961 67.6858 61.6993L113.415 37.9344C115.292 40.7634 114.223 42.9297 114.223 42.9297L103.193 91.2262C102.681 93.4685 100.439 94.8849 98.1871 94.3706Z" fill="#323FD4"/>
<path d="M15.3842 74.9878C15.1112 74.9255 14.8725 74.7581 14.7287 74.4894C14.4593 74.0073 14.6386 73.402 15.1207 73.1326L54.5106 51.4793C54.9927 51.2099 55.598 51.3891 55.8674 51.8712C56.1368 52.3533 55.9575 52.9586 55.4754 53.228L16.0855 74.8813C15.8624 75.0047 15.6084 75.039 15.3842 74.9878Z" fill="#0E0D9A"/>
<path d="M99.2066 94.3983C98.9823 94.3471 98.7662 94.2157 98.6188 94.0076L72.423 58.1141C72.0937 57.6696 72.195 57.0465 72.6395 56.7172C73.0839 56.3879 73.707 56.4892 74.0363 56.9336L100.242 92.8294C100.571 93.2739 100.47 93.897 100.025 94.2263C99.7792 94.406 99.4795 94.4606 99.2066 94.3983Z" fill="#0E0D9A"/>
<path d="M111.726 51.663C120.362 53.6354 128.962 48.2333 130.935 39.597C132.907 30.9607 127.505 22.3607 118.869 20.3883C110.232 18.4159 101.632 23.818 99.6599 32.4543C97.6875 41.0906 103.09 49.6906 111.726 51.663Z" fill="url(#paint0_linear_32_3479)"/>
<path d="M110.456 41.2796L108.74 40.8877L111.105 30.5343L109.127 31.2006L109.53 29.4361L111.53 28.6723L113.246 29.0641L110.456 41.2796Z" fill="white"/>
<path d="M114.292 41.3249C113.838 40.5749 113.739 39.6599 113.988 38.568L115.257 33.0111C115.509 31.9095 115.995 31.1281 116.728 30.6595C117.461 30.1909 118.4 30.0771 119.53 30.3353C120.671 30.5958 121.47 31.0962 121.926 31.8365C122.383 32.5767 122.48 33.5014 122.228 34.6031L120.959 40.16C120.707 41.2616 120.221 42.043 119.488 42.5116C118.756 42.9802 117.817 43.094 116.686 42.8358C115.535 42.573 114.747 42.0749 114.292 41.3249ZM118.502 41.035C118.866 40.7898 119.107 40.3628 119.243 39.7681L120.512 34.2112C120.648 33.6165 120.606 33.1249 120.395 32.7484C120.183 32.3718 119.773 32.1037 119.159 31.9634C118.544 31.8231 118.06 31.8767 117.704 32.1339C117.35 32.3813 117.099 32.8061 116.963 33.4007L115.694 38.9577C115.559 39.5523 115.6 40.0439 115.812 40.4205C116.033 40.7992 116.434 41.0652 117.048 41.2054C117.662 41.3457 118.146 41.2922 118.502 41.035Z" fill="white"/>
<path d="M146.069 162.953L41.5697 139.087C38.5378 138.395 36.6324 135.375 37.327 132.333L52.0555 67.8434C52.837 64.4215 56.25 62.2776 59.6719 63.0591L161.169 86.2395C165.244 87.1702 167.803 91.2321 166.871 95.3169L152.316 159.046C151.667 161.842 148.877 163.594 146.069 162.953Z" fill="#FA7F98"/>
<path d="M145.923 162.92L93.6098 150.972L41.2968 139.025C38.4111 138.366 36.6057 135.492 37.2647 132.606L51.7995 68.9645C51.9798 68.1749 52.434 67.4888 53.0865 67.0121C53.849 66.458 54.91 66.6182 55.488 67.3657L87.9291 109.599L94.6429 118.333C97.5138 122.066 102.648 123.208 106.818 121.031L165.444 90.5598C167.847 94.1859 166.485 96.9622 166.485 96.9622L152.342 158.888C151.683 161.773 148.808 163.579 145.923 162.92Z" fill="#F55B7A"/>
<path d="M39.2101 138.056C38.9371 137.993 38.6984 137.826 38.5546 137.557C38.2852 137.075 38.4644 136.47 38.9465 136.201L90.059 108.177C90.5411 107.908 91.1561 108.09 91.4158 108.569C91.6852 109.051 91.5059 109.657 91.0238 109.926L39.9092 137.959C39.6861 138.082 39.4343 138.107 39.2101 138.056Z" fill="#FA7F98"/>
<path d="M147.404 162.858C147.18 162.807 146.963 162.675 146.816 162.467L113.117 116.264C112.788 115.82 112.889 115.197 113.334 114.868C113.778 114.538 114.401 114.639 114.731 115.084L148.429 161.287C148.759 161.731 148.657 162.354 148.213 162.684C147.974 162.875 147.677 162.92 147.404 162.858Z" fill="#FA7F98"/>
</g>
<defs>
<linearGradient id="paint0_linear_32_3479" x1="105.412" y1="18.7957" x2="123.28" y2="57.2634" gradientUnits="userSpaceOnUse">
<stop stop-color="#323FD4"/>
<stop offset="1" stop-color="#F55B7A"/>
</linearGradient>
<clipPath id="clip0_32_3479">
<rect width="155.11" height="132.93" fill="white" transform="translate(29.5972) rotate(12.8649)"/>
</clipPath>
</defs>
</svg>
