<svg width="32" height="24" viewBox="0 0 32 24" fill="none" xmlns="http://www.w3.org/2000/svg">
<rect width="32" height="24" rx="4" fill="#222222"/>
<path d="M9.03203 14.0334L11.0641 12L9.03203 9.96797L7 12L9.03203 14.0334Z" fill="#F0B90B"/>
<path d="M19.4833 10.5488L16 7.06547L12.5167 10.5488L10.4833 8.51672L16 3L21.5167 8.51672L19.4833 10.5488Z" fill="#F0B90B"/>
<path d="M20.9359 12L22.968 9.96797L25 12L22.968 14.0334L20.9359 12Z" fill="#F0B90B"/>
<path d="M12.5167 13.4527L16 16.9359L19.4833 13.4527L21.5167 15.4847L16 21L10.4833 15.4847L12.5167 13.4527Z" fill="#F0B90B"/>
<path d="M18.032 12L16 14.0334L13.968 12L16 9.96797L18.032 12Z" fill="#F0B90B"/>
</svg>
