<svg width="34" height="26" viewBox="0 0 34 26" fill="none" xmlns="http://www.w3.org/2000/svg">
<rect x="0.5" y="0.5" width="33" height="25" rx="4.5" fill="white"/>
<rect x="0.5" y="0.5" width="33" height="25" rx="4.5" stroke="#E2E4E9"/>
<path d="M23.1134 8.58116C23.3287 7.17435 23.1134 6.23647 22.3597 5.37074C21.5343 4.39679 20.0269 4 18.0889 4H12.5262C12.1314 4 11.8084 4.28858 11.7366 4.68537L9.40382 19.4749C9.36793 19.7635 9.58326 20.016 9.87037 20.016H13.3157L13.0645 21.5311C13.0286 21.7836 13.208 22 13.4952 22H16.4022C16.7611 22 17.0482 21.7475 17.0841 21.4228L17.6942 17.5992C17.7301 17.2745 18.0531 17.022 18.3761 17.022H18.8067C21.6061 17.022 23.8312 15.8677 24.4772 12.5491C24.7284 11.1784 24.6207 9.98798 23.903 9.19439C23.6876 8.94188 23.4364 8.76152 23.1134 8.58116Z" fill="#009CDE"/>
<path d="M23.1134 8.58116C23.3287 7.17435 23.1134 6.23647 22.3597 5.37074C21.5343 4.39679 20.0269 4 18.0889 4H12.5262C12.1314 4 11.8084 4.28858 11.7366 4.68537L9.40382 19.4749C9.36793 19.7635 9.58326 20.016 9.87037 20.016H13.3157L14.1412 14.6774C14.2129 14.2806 14.5359 13.992 14.9307 13.992H16.5816C19.8116 13.992 22.3238 12.6934 23.0416 8.86974C23.0775 8.79759 23.0775 8.68938 23.1134 8.58116Z" fill="#012169"/>
<path d="M15.1102 8.61723C15.146 8.36473 15.469 8.04008 15.7921 8.04008H20.1705C20.6729 8.04008 21.1754 8.07615 21.6061 8.1483C22.0008 8.22044 22.7186 8.4008 23.0775 8.61723C23.2928 7.21042 23.0775 6.27254 22.3238 5.40681C21.5343 4.39679 20.0269 4 18.0889 4H12.5262C12.1314 4 11.8084 4.28858 11.7366 4.68537L9.40382 19.4749C9.36793 19.7635 9.58326 20.016 9.87037 20.016H13.3157L15.1102 8.61723Z" fill="#003087"/>
</svg>
