<svg width="32" height="24" viewBox="0 0 32 24" fill="none" xmlns="http://www.w3.org/2000/svg">
<rect width="32" height="24" rx="4" fill="#1B39C3"/>
<path d="M26.222 15.912L25.997 14.7439H23.483L23.083 15.9037L21.068 15.9078C22.0273 13.5127 22.9886 11.1184 23.952 8.72501C24.116 8.31905 24.407 8.11243 24.836 8.11451C25.164 8.11762 25.699 8.11762 26.442 8.11554L28 15.9089L26.222 15.912ZM24.049 13.1439H25.669L25.064 10.216L24.049 13.1439ZM11.06 8.11347L13.086 8.11554L9.954 15.913L7.903 15.911C7.38725 13.8513 6.87791 11.79 6.375 9.72695C6.275 9.3158 6.077 9.02819 5.696 8.89218C5.357 8.7707 4.792 8.58381 4 8.32943V8.11658H7.237C7.797 8.11658 8.124 8.39796 8.229 8.97524C8.335 9.55356 8.601 11.0258 9.029 13.3921L11.06 8.11347ZM15.87 8.11554L14.268 15.911L12.34 15.9089L13.94 8.11347L15.87 8.11554ZM19.78 7.97122C20.357 7.97122 21.084 8.15811 21.502 8.32943L21.164 9.94603C20.786 9.78821 20.164 9.57537 19.641 9.58263C18.881 9.59613 18.411 9.92734 18.411 10.2451C18.411 10.7621 19.227 11.0227 20.067 11.5876C21.026 12.2313 21.152 12.8096 21.14 13.4378C21.127 14.7419 20.067 16.0283 17.831 16.0283C16.811 16.0127 16.443 15.9234 15.611 15.6171L15.963 13.9299C16.81 14.2985 17.169 14.4158 17.893 14.4158C18.556 14.4158 19.125 14.1376 19.13 13.6527C19.134 13.308 18.93 13.1367 18.186 12.711C17.442 12.2842 16.398 11.6935 16.412 10.5077C16.429 8.98978 17.814 7.97122 19.781 7.97122H19.78Z" fill="white"/>
</svg>
