<svg width="32" height="24" viewBox="0 0 32 24" fill="none" xmlns="http://www.w3.org/2000/svg">
<rect width="32" height="24" rx="4" fill="#B1E57F"/>
<path d="M29.9999 11.5976C29.9999 9.95516 28.8667 8.79999 27.278 8.79999C25.2556 8.79999 23.9001 10.2836 23.9001 12.4024C23.9001 14.0558 25.0441 15.2 26.6599 15.2C28.1293 15.2 29.2245 14.4828 29.6746 13.3386H28.0425C27.8256 13.6944 27.3648 13.9189 26.8009 13.9189C25.9333 13.9189 25.3911 13.3386 25.3423 12.5174H29.9077C29.9674 12.2053 29.9999 11.937 29.9999 11.5976ZM25.467 11.406C25.6134 10.6505 26.34 10.0482 27.2184 10.0482C27.9775 10.0482 28.5522 10.6067 28.5522 11.406H25.467Z" fill="#163300"/>
<path d="M19.5139 15.0527L19.8067 13.476C20.7013 13.6566 20.8369 13.1475 21.0701 11.9211L21.1839 11.3134C21.5092 9.59983 22.1653 8.74577 24.0413 8.97571L23.7486 10.5524C22.8539 10.3718 22.6967 11.0561 22.4961 12.1182L22.3822 12.7259C22.0569 14.4614 21.3791 15.2826 19.5139 15.0527Z" fill="#163300"/>
<path d="M17.3235 15.0582L18.4296 8.94841H19.8881L18.7874 15.0582H17.3235Z" fill="#163300"/>
<path d="M8.96753 8.94841H10.3827L10.8436 13.3665L12.6979 8.94841H14.1022L14.5956 13.4103L16.3849 8.94841H17.7947L15.23 15.0582H13.6251L13.1046 10.8536L11.3316 15.0582H9.78084L8.96753 8.94841Z" fill="#163300"/>
<path d="M3.68084 10.5684L2 12.189H4.85743L5.15565 11.4827H3.70795L4.61344 10.5684L4.0875 9.65416H6.5437L4.27727 15.0578H5.12854L7.69318 8.94791H2.7374L3.68084 10.5684Z" fill="#163300"/>
</svg>
