<?xml version="1.0" encoding="utf-8"?>
<!-- Generator: Adobe Illustrator 26.1.0, SVG Export Plug-In . SVG Version: 6.00 Build 0)  -->
<svg version="1.1" id="Layer_1" xmlns="http://www.w3.org/2000/svg" xmlns:xlink="http://www.w3.org/1999/xlink" x="0px" y="0px"
	 viewBox="0 0 250.6 42" style="enable-background:new 0 0 250.6 42;" xml:space="preserve">
<style type="text/css">
	.st0{fill-rule:evenodd;clip-rule:evenodd;fill:url(#SVGID_1_);}
	.st1{fill:none;}
	.st2{font-family:'DINAlternate-Bold';}
	.st3{font-size:36px;}
	.st4{fill:#444649;}
	.st5{fill:url(#SVGID_00000086666580072839519730000008248959642677538233_);}
	.st6{fill:url(#SVGID_00000116204853917507483200000013476728569526743197_);}
	.st7{fill:url(#SVGID_00000106108257489612290310000005535261428277573791_);}
	.st8{fill:url(#SVGID_00000023278729135516807170000017582446272321131172_);}
	.st9{fill:url(#SVGID_00000100365426915382872680000003802363040552522637_);}
	.st10{fill:url(#SVGID_00000067920974377829140400000017907699195665849482_);}
</style>
<linearGradient id="SVGID_1_" gradientUnits="userSpaceOnUse" x1="20" y1="33.387" x2="20" y2="5.7333" gradientTransform="matrix(1 0 0 -1 0 44)">
	<stop  offset="0" style="stop-color:#323FD4"/>
	<stop  offset="1" style="stop-color:#F55B7A"/>
</linearGradient>
<path class="st0" d="M3.6,0.7C2.6,0.9,2,1.2,1.3,1.9c-0.9,1-1.2,1.6-1.3,3.5C0,6.3,0,12.7,0,19.6c0,11.7,0.1,12.8,0.2,13.5
	c0.7,3.2,3,6.1,5.7,7.4c1.3,0.6,2.1,0.8,3.5,0.9c3,0.2,5.7-1.2,8.4-4.3c1.1-1.3,1.5-1.6,2.2-1.6c0.6,0,0.9,0.3,2.1,1.6
	c2.7,3.1,5.3,4.5,8.4,4.3c1.4-0.1,2.2-0.3,3.5-0.9c1.7-0.8,2.9-1.9,4.1-3.7c0.7-1,1-1.7,1.4-2.9c0.2-0.6,0.3-1.3,0.3-2V18.4V3.9
	l-0.3-0.7c-0.6-1.3-1.9-2.3-3.3-2.6C35.4,0.4,4.4,0.5,3.6,0.7z M4.6,6.7c-0.1,0.1-0.1,2-0.1,7.9v7.8L5.2,22
	c3.6-1.9,7.5-1.6,10.6,0.7c0.9,0.6,2.6,2.5,3.5,3.6c0.4,0.5,0.7,0.9,0.7,0.9c0,0,0.5-0.5,0.9-1.1c0.9-1.2,2.6-3,3.4-3.5
	c3.1-2.2,6.8-2.4,10.4-0.6l0.9,0.4v-7.8c0-7.6,0-7.8-0.2-7.9c-0.3-0.2-0.8-0.1-1.3,0c-0.4,0.2-0.6,0.3-6.8,5.3
	c-2.5,2.1-4.9,3.9-5.2,4.1c-1.1,0.8-2.1,0.9-3.2,0.5c-0.9-0.3-0.9-0.3-10.2-7.9C6.2,6.8,5.9,6.6,5.3,6.6C5,6.6,4.7,6.6,4.6,6.7z
	 M8.7,25.9c-1,0.2-1.8,0.7-2.6,1.5c-0.9,0.8-1.2,1.4-1.4,2.6c-0.3,1.5,0.1,3.1,1.1,4.4c1.2,1.7,3.5,2.6,5.3,2.1
	c1.8-0.4,3.4-1.7,5.3-4.1c1.3-1.6,1.2-1.5,0.8-2.1c-0.6-0.8-2.8-3-3.6-3.6c-1.1-0.7-1.8-1-3.1-1C9.7,25.8,9,25.8,8.7,25.9z
	 M28.5,25.9c-1.3,0.4-2.5,1.2-4.1,2.9c-1.1,1.2-1.7,2-1.6,2.2c0.1,0.1,0.7,1,1.9,2.4c1.8,2.2,4.1,3.4,5.8,3.2c2.3-0.3,4.1-1.7,4.8-4
	c0.5-1.3,0.3-3.2-0.4-4.3c-0.7-1.1-2.3-2.2-3.6-2.5C30.5,25.7,29.2,25.7,28.5,25.9z"/>
<g>
	<rect x="50.1" y="8.6" class="st1" width="79.1" height="29.7"/>
	<text transform="matrix(1 0 0 1 50.1161 34.1864)" class="st2 st3">MAIL</text>
	<rect x="50.1" y="8.6" class="st1" width="79.1" height="29.7"/>
	<text transform="matrix(1 0 0 1 50.1161 34.1864)" class="st4 st2 st3">MAIL</text>
</g>
<g>
	<g>
		
			<linearGradient id="SVGID_00000118393384773100867600000015137254366381328312_" gradientUnits="userSpaceOnUse" x1="220.1358" y1="-12.3272" x2="152.7442" y2="55.0645">
			<stop  offset="0" style="stop-color:#333ED4"/>
			<stop  offset="3.995538e-02" style="stop-color:#4440CC"/>
			<stop  offset="0.1628" style="stop-color:#7347B7"/>
			<stop  offset="0.2899" style="stop-color:#9B4DA5"/>
			<stop  offset="0.4196" style="stop-color:#BB5296"/>
			<stop  offset="0.5525" style="stop-color:#D5558B"/>
			<stop  offset="0.69" style="stop-color:#E75882"/>
			<stop  offset="0.835" style="stop-color:#F2597E"/>
			<stop  offset="1" style="stop-color:#F55A7C"/>
		</linearGradient>
		<path style="fill:url(#SVGID_00000118393384773100867600000015137254366381328312_);" d="M131.9,8.6h9.7c2.1,0,3.8,0.6,5.1,1.7
			c1.6,1.3,2.4,3.1,2.5,5.5c0,3.5-1.6,5.8-4.8,7.1l5.7,11.4h-4.5l-5.1-11h-4.8v11h-3.8V8.6z M135.6,19.8h5.7c1.4,0,2.5-0.4,3.2-1.3
			c0.7-0.8,1-1.7,1-2.8c0-1.3-0.4-2.3-1.2-2.9c-0.6-0.5-1.6-0.8-2.8-0.8h-5.9V19.8z"/>
		
			<linearGradient id="SVGID_00000042004601391802243380000005923527163091428286_" gradientUnits="userSpaceOnUse" x1="220.1358" y1="-12.3272" x2="152.7442" y2="55.0645">
			<stop  offset="0" style="stop-color:#333ED4"/>
			<stop  offset="3.995538e-02" style="stop-color:#4440CC"/>
			<stop  offset="0.1628" style="stop-color:#7347B7"/>
			<stop  offset="0.2899" style="stop-color:#9B4DA5"/>
			<stop  offset="0.4196" style="stop-color:#BB5296"/>
			<stop  offset="0.5525" style="stop-color:#D5558B"/>
			<stop  offset="0.69" style="stop-color:#E75882"/>
			<stop  offset="0.835" style="stop-color:#F2597E"/>
			<stop  offset="1" style="stop-color:#F55A7C"/>
		</linearGradient>
		<path style="fill:url(#SVGID_00000042004601391802243380000005923527163091428286_);" d="M166.5,28.5h-9.4l-1.9,5.7h-4l9-25.6h3.1
			l9,25.6h-4L166.5,28.5z M165.5,25l-3.6-11.2h-0.1L158.2,25H165.5z"/>
		
			<linearGradient id="SVGID_00000158730494290175849820000003142766847172898697_" gradientUnits="userSpaceOnUse" x1="220.1358" y1="-12.3272" x2="152.7442" y2="55.0645">
			<stop  offset="0" style="stop-color:#333ED4"/>
			<stop  offset="3.995538e-02" style="stop-color:#4440CC"/>
			<stop  offset="0.1628" style="stop-color:#7347B7"/>
			<stop  offset="0.2899" style="stop-color:#9B4DA5"/>
			<stop  offset="0.4196" style="stop-color:#BB5296"/>
			<stop  offset="0.5525" style="stop-color:#D5558B"/>
			<stop  offset="0.69" style="stop-color:#E75882"/>
			<stop  offset="0.835" style="stop-color:#F2597E"/>
			<stop  offset="1" style="stop-color:#F55A7C"/>
		</linearGradient>
		<path style="fill:url(#SVGID_00000158730494290175849820000003142766847172898697_);" d="M175.8,8.6h9c1,0,1.9,0.1,2.8,0.3
			c0.9,0.2,1.8,0.8,2.8,1.5c0.8,0.6,1.4,1.4,1.9,2.5c0.5,1,0.8,2.2,0.8,3.7c0,1.9-0.6,3.6-1.9,5.2c-1.3,1.6-3.3,2.5-5.8,2.5h-5.7v10
			h-3.8V8.6z M179.5,20.5h5.6c1.4,0,2.5-0.5,3.2-1.3c0.7-0.8,1-1.8,1-2.8c0-0.9-0.1-1.6-0.4-2.2c-0.3-0.5-0.7-0.9-1.2-1.3
			c-0.8-0.5-1.7-0.7-2.7-0.7h-5.4V20.5z"/>
		
			<linearGradient id="SVGID_00000123423466055445134710000007396015498182915202_" gradientUnits="userSpaceOnUse" x1="220.1358" y1="-12.3272" x2="152.7442" y2="55.0645">
			<stop  offset="0" style="stop-color:#333ED4"/>
			<stop  offset="3.995538e-02" style="stop-color:#4440CC"/>
			<stop  offset="0.1628" style="stop-color:#7347B7"/>
			<stop  offset="0.2899" style="stop-color:#9B4DA5"/>
			<stop  offset="0.4196" style="stop-color:#BB5296"/>
			<stop  offset="0.5525" style="stop-color:#D5558B"/>
			<stop  offset="0.69" style="stop-color:#E75882"/>
			<stop  offset="0.835" style="stop-color:#F2597E"/>
			<stop  offset="1" style="stop-color:#F55A7C"/>
		</linearGradient>
		<path style="fill:url(#SVGID_00000123423466055445134710000007396015498182915202_);" d="M197.1,8.6h3.8v25.6h-3.8V8.6z"/>
		
			<linearGradient id="SVGID_00000067930812838266045310000003711294752635227569_" gradientUnits="userSpaceOnUse" x1="220.1358" y1="-12.3272" x2="152.7442" y2="55.0645">
			<stop  offset="0" style="stop-color:#333ED4"/>
			<stop  offset="3.995538e-02" style="stop-color:#4440CC"/>
			<stop  offset="0.1628" style="stop-color:#7347B7"/>
			<stop  offset="0.2899" style="stop-color:#9B4DA5"/>
			<stop  offset="0.4196" style="stop-color:#BB5296"/>
			<stop  offset="0.5525" style="stop-color:#D5558B"/>
			<stop  offset="0.69" style="stop-color:#E75882"/>
			<stop  offset="0.835" style="stop-color:#F2597E"/>
			<stop  offset="1" style="stop-color:#F55A7C"/>
		</linearGradient>
		<path style="fill:url(#SVGID_00000067930812838266045310000003711294752635227569_);" d="M206.4,8.6h8.7c3.4,0,5.9,1.5,7.6,4.3
			c0.6,1,1,2,1.1,3c0.1,1.1,0.2,2.9,0.2,5.5c0,2.8-0.1,4.7-0.3,5.8c-0.1,0.6-0.2,1-0.4,1.5c-0.2,0.4-0.4,0.9-0.7,1.3
			c-0.7,1.2-1.7,2.2-3,3c-1.3,0.8-2.9,1.3-4.7,1.3h-8.4V8.6z M210.2,30.5h4.5c2.1,0,3.6-0.7,4.6-2.2c0.4-0.6,0.7-1.3,0.8-2.1
			c0.1-0.8,0.2-2.4,0.2-4.7c0-2.2-0.1-3.8-0.2-4.8c-0.1-1-0.5-1.7-1-2.3c-1-1.5-2.5-2.2-4.4-2.2h-4.5V30.5z"/>
		
			<linearGradient id="SVGID_00000021079754313424810670000013959202074485007035_" gradientUnits="userSpaceOnUse" x1="220.1358" y1="-12.3272" x2="152.7442" y2="55.0645">
			<stop  offset="0" style="stop-color:#333ED4"/>
			<stop  offset="3.995538e-02" style="stop-color:#4440CC"/>
			<stop  offset="0.1628" style="stop-color:#7347B7"/>
			<stop  offset="0.2899" style="stop-color:#9B4DA5"/>
			<stop  offset="0.4196" style="stop-color:#BB5296"/>
			<stop  offset="0.5525" style="stop-color:#D5558B"/>
			<stop  offset="0.69" style="stop-color:#E75882"/>
			<stop  offset="0.835" style="stop-color:#F2597E"/>
			<stop  offset="1" style="stop-color:#F55A7C"/>
		</linearGradient>
		<path style="fill:url(#SVGID_00000021079754313424810670000013959202074485007035_);" d="M228.2,21.4c0-3,0.1-5,0.3-6
			c0.2-1,0.5-1.8,0.8-2.4c0.6-1.2,1.6-2.2,2.9-3.2c1.3-0.9,2.9-1.4,4.9-1.4c2,0,3.6,0.5,4.9,1.4c1.3,0.9,2.2,2,2.8,3.2
			c0.4,0.6,0.7,1.4,0.9,2.4c0.1,1,0.2,3,0.2,6c0,2.9-0.1,4.9-0.2,5.9c-0.2,1-0.4,1.9-0.9,2.5c-0.6,1.2-1.5,2.2-2.8,3.1
			c-1.3,0.9-3,1.4-4.9,1.5c-2,0-3.6-0.5-4.9-1.5c-1.3-0.9-2.3-1.9-2.9-3.1c-0.2-0.4-0.3-0.8-0.5-1.1c-0.1-0.4-0.2-0.8-0.3-1.4
			C228.3,26.3,228.2,24.3,228.2,21.4z M232,21.4c0,2.5,0.1,4.2,0.3,5.1c0.2,0.9,0.5,1.6,1,2.2c0.4,0.5,0.9,1,1.6,1.3
			c0.6,0.4,1.4,0.6,2.3,0.6c0.9,0,1.7-0.2,2.3-0.6c0.6-0.3,1.1-0.8,1.5-1.3c0.5-0.6,0.8-1.3,1-2.2c0.2-0.9,0.3-2.6,0.3-5.1
			s-0.1-4.2-0.3-5.2c-0.2-0.9-0.5-1.6-1-2.1c-0.4-0.5-0.9-1-1.5-1.3c-0.7-0.3-1.4-0.5-2.3-0.5c-0.9,0-1.6,0.2-2.3,0.5
			c-0.6,0.4-1.2,0.8-1.6,1.3c-0.5,0.6-0.8,1.3-1,2.1C232.1,17.1,232,18.8,232,21.4z"/>
	</g>
</g>
</svg>